<?xml version="1.0" encoding="UTF-8"?>
<svg width="18px" height="18px" viewBox="0 0 18 18" version="1.1" xmlns="http://www.w3.org/2000/svg" xmlns:xlink="http://www.w3.org/1999/xlink">
    <!-- Generator: Sketch 64 (93537) - https://sketch.com -->
    <title>形状结合</title>
    <desc>Created with Sketch.</desc>
    <g id="资质管理" stroke="none" stroke-width="1" fill="none" fill-rule="evenodd">
        <g transform="translate(-1390.000000, -125.000000)" fill="#3D568E" fill-rule="nonzero" id="编组-4">
            <g transform="translate(1298.000000, 118.000000)">
                <g id="编组-11" transform="translate(82.000000, 0.000000)">
                    <path d="M27.1379934,23.2760195 C27.6140665,23.2760195 28,23.6619456 28,24.1380097 C28,24.5924345 27.648354,24.9647296 27.202326,24.9976357 L27.1379934,25 L19.3799342,25 C18.9038611,25 18.5179276,24.6140738 18.5179276,24.1380097 C18.5179276,23.6835849 18.8695736,23.3112899 19.3156016,23.2783838 L19.3799342,23.2760195 L27.1379934,23.2760195 Z M21.1409818,7.57816059 C23.1399703,8.73227718 23.8647123,11.2458599 22.821591,13.2767763 L22.7186041,13.4657044 L17.5806884,22.3648355 C17.5032969,22.4988814 17.3916276,22.6089795 17.2580631,22.684408 L17.1539779,22.7343112 L11.9788979,24.8017601 C11.4954353,24.9949038 10.9621671,24.718506 10.828347,24.2319434 L10.805949,24.1245577 L10.0088722,18.6090825 C9.98673338,18.4558899 10.0063404,18.3003031 10.0645993,18.1584066 L10.1154924,18.0548026 L15.2534081,9.1556715 C16.4435683,7.09425356 19.0795248,6.38797787 21.1409818,7.57816059 Z M15.8849116,11.5098754 L11.7578941,18.6581057 L12.3557924,22.7945549 L16.2374427,21.2433789 L20.363995,14.0958754 L15.8849116,11.5098754 Z M16.8401397,9.86733006 L16.7464473,10.0176781 L21.2255649,12.6036978 C21.8943538,11.4453215 21.5650621,9.98458465 20.5045171,9.2172621 L20.3620601,9.1211908 L20.2789915,9.07117154 C19.0936537,8.38681647 17.5917428,8.74748901 16.8401397,9.86733006 Z" id="形状结合"></path>
                </g>
            </g>
        </g>
    </g>
</svg>