<?xml version="1.0" standalone="no"?><!DOCTYPE svg PUBLIC "-//W3C//DTD SVG 1.1//EN" "http://www.w3.org/Graphics/SVG/1.1/DTD/svg11.dtd"><svg t="1619514291490" class="icon" viewBox="0 0 1024 1024" version="1.1" xmlns="http://www.w3.org/2000/svg" p-id="11207" xmlns:xlink="http://www.w3.org/1999/xlink" width="200" height="200"><defs><style type="text/css"></style></defs><path d="M570.069333 208.469333V162.901333c0-61.653333-55.637333-109.568-122.069333-109.568H132.736C66.304 53.333333 10.666667 101.248 10.666667 162.901333v698.197334c0 61.653333 55.637333 109.568 122.069333 109.568H763.306667a32 32 0 1 0 0-64H132.693333c-33.024 0-58.069333-21.546667-58.069333-45.568V162.901333c0-24.021333 25.045333-45.568 58.069333-45.568H448c33.066667 0 58.069333 21.546667 58.069333 45.568v77.568c0 17.706667 14.336 32 32 32h225.194667c33.024 0 58.069333 21.589333 58.069333 45.610667 0 16.725333-0.170667 25.941333-0.512 34.176l-0.256 5.205333c-0.213333 5.546667-0.341333 9.941333-0.341333 16.64a32 32 0 1 0 64 0c0-5.717333 0.085333-9.173333 0.298667-13.824l0.213333-5.290666c0.426667-9.216 0.597333-19.328 0.597333-36.906667 0-61.696-55.637333-109.610667-122.069333-109.610667H570.026667z" fill="#1FA9E0" p-id="11208"></path><path d="M298.666667 341.333333h597.333333a85.333333 85.333333 0 0 1 85.333333 85.333334v458.453333a85.333333 85.333333 0 0 1-85.333333 85.333333H213.333333V426.666667a85.333333 85.333333 0 0 1 85.333334-85.333334z" fill="#1FA9E0" p-id="11209"></path><path d="M547.328 621.226667L481.28 687.36a32 32 0 0 1-45.226667-45.226667l120.661334-120.746666a32 32 0 0 1 45.226666 0l120.746667 120.746666a32 32 0 1 1-45.269333 45.226667l-66.090667-66.048v187.648a32 32 0 1 1-64 0v-187.648z" fill="#F9F9F9" p-id="11210"></path></svg>