<?xml version="1.0" standalone="no"?><!DOCTYPE svg PUBLIC "-//W3C//DTD SVG 1.1//EN" "http://www.w3.org/Graphics/SVG/1.1/DTD/svg11.dtd"><svg t="1596010920774" class="icon" viewBox="0 0 1026 1024" version="1.1" xmlns="http://www.w3.org/2000/svg" p-id="8849" xmlns:xlink="http://www.w3.org/1999/xlink" width="16.03125" height="16"><defs><style type="text/css"></style></defs><path d="M179.994092 504.18513a37.813885 37.813885 0 0 0 37.813884-37.813884v-171.422945l147.726244 195.119646a37.813885 37.813885 0 0 0 68.064992-23.192516V182.515017a37.813885 37.813885 0 1 0-75.627769 0V352.929591l-151.25554-195.119645a37.813885 37.813885 0 0 0-68.064992 23.192516v284.360413a38.31807 38.31807 0 0 0 41.343181 38.822255zM685.691777 504.18513a37.813885 37.813885 0 0 0-34.284588 21.679961l-151.25554 319.149188a37.813885 37.813885 0 1 0 68.569178 31.763663l41.343181-88.232398h147.726243l41.847366 88.736583a37.813885 37.813885 0 0 0 68.569178-32.267848l-151.255539-319.149188a37.813885 37.813885 0 0 0-31.259479-21.679961z m-38.318069 208.732644l38.318069-81.677991 38.31807 81.677991z" fill="#515151" p-id="8850"></path><path d="M1008.370261 154.28065A138.650911 138.650911 0 0 0 871.736091 15.629739H140.667651A138.650911 138.650911 0 0 0 0 154.28065v731.068439a138.650911 138.650911 0 0 0 138.650911 138.650911h731.068439A138.650911 138.650911 0 0 0 1008.370261 885.349089a37.813885 37.813885 0 0 0-75.62777 0 63.023141 63.023141 0 0 1-63.023141 63.023141H135.6258L934.759232 160.835057v521.83161a37.813885 37.813885 0 0 0 75.627769 0v-357.971443-3.529296-3.529296z m-932.742491 0a63.023141 63.023141 0 0 1 65.039881-63.023141h731.06844a62.014771 62.014771 0 0 1 21.67996 4.537666L80.165436 896.441162a59.493845 59.493845 0 0 1 0-11.092073z" fill="#515151" p-id="8851"></path></svg>