<?xml version="1.0" encoding="UTF-8"?>
<svg width="16px" height="17px" viewBox="0 0 16 17" version="1.1" xmlns="http://www.w3.org/2000/svg" xmlns:xlink="http://www.w3.org/1999/xlink">
    <!-- Generator: Sketch 64 (93537) - https://sketch.com -->
    <title>形状结合备份 2</title>
    <desc>Created with Sketch.</desc>
    <g id="资质管理" stroke="none" stroke-width="1" fill="none" fill-rule="evenodd">
        <g transform="translate(-1790.000000, -262.000000)" fill="#3D568E" fill-rule="nonzero" id="编组-6">
            <g transform="translate(190.000000, 170.000000)">
                <g id="ic/考核" transform="translate(1600.000000, 92.250000)">
                    <path d="M9.52376133,0 C9.90948206,-7.08557487e-17 10.2282565,0.286631064 10.278707,0.658515466 L10.2856622,0.76190344 L12.1904145,0.761902173 C13.4240833,0.761902173 14.4294781,1.73926071 14.4745407,2.96191822 L14.4761172,3.04760869 L14.4761172,6.47616847 C14.4761172,6.89695542 14.1350026,7.23807064 13.7142163,7.23807064 C13.3125567,7.23807064 12.9834904,6.92726111 12.9544052,6.53303012 L12.9523154,6.47616847 L12.9523154,3.04760869 C12.9523154,2.64594842 12.6415064,2.31688161 12.2472761,2.28779632 L12.1904145,2.28570652 L2.28570272,2.28570652 C1.88404311,2.28570652 1.55497685,2.59651605 1.52589161,2.99074704 L1.52380181,3.04760869 L1.52380181,13.7142391 C1.52380181,14.1158994 1.83461083,14.4449662 2.22884116,14.4740515 L2.28570272,14.4761413 L6.4761577,14.4761413 C6.89694395,14.4761413 7.23805861,14.8172565 7.23805861,15.2380435 C7.23805861,15.6397037 6.92724959,15.9687706 6.53301926,15.9978558 L6.4761577,15.9999456 L2.28570272,15.9999456 C1.05203394,15.9999456 0.0466390928,15.0225871 0.0015765528,13.7999296 L0,13.7142391 L0,3.04760869 C0,1.81393786 0.977356916,0.808541343 2.20001239,0.763478729 L2.28570272,0.761902173 L4.19045498,0.761900906 C4.19045498,0.341114655 4.53156964,7.72971804e-17 4.95235589,0 L9.52376133,0 Z M15.6606447,7.74698298 C15.9932543,7.96872305 16.0952686,8.40673019 15.9045185,8.75015718 L15.871958,8.80355119 L11.3005526,15.6606707 C11.055962,16.0275572 10.5557547,16.1079132 10.209735,15.8478282 L10.1635447,15.8102468 L7.49689153,13.4657791 C7.18087287,13.1879418 7.14992033,12.7065261 7.42775711,12.3905069 C7.6909709,12.0911203 8.13689751,12.0475829 8.45180913,12.280066 L8.5030275,12.3213724 L10.5153754,14.090502 L14.6040783,7.95829662 C14.8374885,7.60818071 15.3105294,7.51357237 15.6606447,7.74698298 Z M10.2856622,7.80949727 C10.7064485,7.80949727 11.0475631,8.1506125 11.0475631,8.57139945 C11.0475631,8.97305972 10.7367541,9.30212654 10.3425238,9.33121182 L10.2856622,9.33330162 L4.95235589,9.33330162 C4.53156964,9.33330162 4.19045498,8.9921864 4.19045498,8.57139945 C4.19045498,8.16973918 4.501264,7.84067236 4.89549433,7.81158707 L4.95235589,7.80949727 L10.2856622,7.80949727 Z M10.2856622,4.76188858 C10.7064485,4.76188858 11.0475631,5.1030038 11.0475631,5.52379076 C11.0475631,5.92545103 10.7367541,6.25451784 10.3425238,6.28360313 L10.2856622,6.28569293 L4.95235589,6.28569293 C4.53156964,6.28569293 4.19045498,5.94457771 4.19045498,5.52379076 C4.19045498,5.12213048 4.501264,4.79306367 4.89549433,4.76397838 L4.95235589,4.76188858 L10.2856622,4.76188858 Z" id="形状结合备份-2"></path>
                </g>
            </g>
        </g>
    </g>
</svg>