<?xml version="1.0" standalone="no"?><!DOCTYPE svg PUBLIC "-//W3C//DTD SVG 1.1//EN" "http://www.w3.org/Graphics/SVG/1.1/DTD/svg11.dtd"><svg t="1596010471046" class="icon" viewBox="0 0 1024 1024" version="1.1" xmlns="http://www.w3.org/2000/svg" p-id="1548" width="16" height="16" xmlns:xlink="http://www.w3.org/1999/xlink"><defs><style type="text/css"></style></defs><path d="M884.9152 844.8H360.85248c-154.70592-5.7856-246.2464-46.592-272.0768-121.20576-30.60224-88.41216 41.3696-207.0016 213.9136-352.47104l41.78944 49.2288c-204.15488 172.12416-204.05248 254.67392-194.5344 282.17856 15.52896 44.87168 93.04576 73.216 212.736 77.76768h522.24V844.8z" fill="#515151" p-id="1549"></path><path d="M927.19616 231.06048L848.896 153.00608a50.92864 50.92864 0 0 0-71.73632 0l-330.91072 329.728a50.688 50.688 0 0 0-12.75392 21.29408l-34.56512 115.31776a50.62656 50.62656 0 0 0 48.55296 65.024 51.07712 51.07712 0 0 0 15.96416-2.56l112.6656-37.07904a50.85696 50.85696 0 0 0 19.968-12.2624l331.12064-329.9584a50.432 50.432 0 0 0-0.00512-71.4496z m-441.55904 324.4288l38.54336 38.4-55.53152 18.27328z m93.85984 2.28352l-58.48064-58.28096 224.93184-224.14848 58.48576 58.28096z m270.72-269.7728l-58.48576-58.27584 21.27872-21.20192 58.48064 58.28096z" fill="#515151" p-id="1550"></path></svg>