<?xml version="1.0" standalone="no"?><!DOCTYPE svg PUBLIC "-//W3C//DTD SVG 1.1//EN" "http://www.w3.org/Graphics/SVG/1.1/DTD/svg11.dtd"><svg t="1568808650327" class="icon" viewBox="0 0 1026 1024" version="1.1" xmlns="http://www.w3.org/2000/svg" p-id="10866" xmlns:xlink="http://www.w3.org/1999/xlink" width="200.390625" height="200"><defs><style type="text/css"></style></defs><path d="M546.816 879.375059l-30.117647 7.589647V783.058824h60.235294v104.207058l-30.117647-7.890823zM546.816 180.705882a30.117647 30.117647 0 0 1-30.117647-30.117647v-60.235294a30.117647 30.117647 0 0 1 60.235294 0v60.235294a30.117647 30.117647 0 0 1-30.117647 30.117647z"  ></path><path d="M722.823529 993.882353c-3.011765 0-6.023529-0.421647-8.854588-1.325177l-167.273412-51.561411-174.140235 51.681882a30.117647 30.117647 0 0 1-17.167059-57.765647l182.874353-54.272a30.780235 30.780235 0 0 1 17.468236 0.120471l176.007529 54.272A30.057412 30.057412 0 0 1 722.823529 993.882353z m210.82353-210.823529h-783.058824c-49.814588 0-90.352941-40.538353-90.352941-90.352942v-481.882353C60.235294 161.008941 100.773647 120.470588 150.588235 120.470588h783.058824c49.814588 0 90.352941 40.538353 90.352941 90.352941v481.882353c0 49.814588-40.538353 90.352941-90.352941 90.352942zM150.588235 180.705882c-16.564706 0-30.117647 13.552941-30.117647 30.117647v481.882353c0 16.564706 13.552941 30.117647 30.117647 30.117647h783.058824c16.564706 0 30.117647-13.552941 30.117647-30.117647v-481.882353c0-16.564706-13.552941-30.117647-30.117647-30.117647h-783.058824z"  ></path><path d="M456.463059 608.918588a30.238118 30.238118 0 0 1-21.323294-8.794353L247.868235 412.852706a30.117647 30.117647 0 0 1 42.586353-42.586353l166.008471 166.008471 161.310117-161.310118a30.117647 30.117647 0 0 1 42.586353 0l179.320471 179.32047a30.117647 30.117647 0 0 1-42.586353 42.586353l-158.057412-158.057411-161.249882 161.310117a29.997176 29.997176 0 0 1-21.323294 8.794353z"  ></path></svg>