<?xml version="1.0" standalone="no"?><!DOCTYPE svg PUBLIC "-//W3C//DTD SVG 1.1//EN" "http://www.w3.org/Graphics/SVG/1.1/DTD/svg11.dtd"><svg t="1568808650327" class="icon" viewBox="0 0 1026 1024" version="1.1" xmlns="http://www.w3.org/2000/svg" p-id="10866" xmlns:xlink="http://www.w3.org/1999/xlink" width="200.390625" height="200"><defs><style type="text/css"></style></defs><path d="M384 0H85.333333C38.4 0 0 38.4 0 85.333333v298.666667c0 46.933333 38.4 85.333333 85.333333 85.333333h298.666667c46.933333 0 85.333333-38.4 85.333333-85.333333V85.333333c0-46.933333-38.4-85.333333-85.333333-85.333333z m0 405.333333v21.333334-21.333334zM384 554.666667H85.333333c-46.933333 0-85.333333 38.4-85.333333 85.333333v298.666667c0 46.933333 38.4 85.333333 85.333333 85.333333h298.666667c46.933333 0 85.333333-38.4 85.333333-85.333333V640c0-46.933333-38.4-85.333333-85.333333-85.333333z m0 413.866666v12.8-12.8zM938.666667 554.666667H640c-46.933333 0-85.333333 38.4-85.333333 85.333333v298.666667c0 46.933333 38.4 85.333333 85.333333 85.333333h298.666667c46.933333 0 85.333333-38.4 85.333333-85.333333V640c0-46.933333-38.4-85.333333-85.333333-85.333333zM966.4 151.466667h-29.866667c-2.133333-2.133333-4.266667-6.4-4.266666-8.533334l17.066666-29.866666c14.933333-27.733333 6.4-64-21.333333-81.066667L889.6 8.533333c-12.8-8.533333-27.733333-10.666667-42.666667-6.4S819.2 17.066667 810.666667 29.866667l-14.933334 27.733333h-8.533333l-14.933333-27.733333c-8.533333-14.933333-21.333333-23.466667-36.266667-27.733334-14.933333-4.266667-29.866667-2.133333-42.666667 6.4l-38.4 23.466667c-25.6 17.066667-36.266667 53.333333-21.333333 81.066667l17.066667 29.866666c-2.133333 2.133333-4.266667 6.4-4.266667 8.533334h-29.866667c-32 0-57.6 27.733333-57.6 59.733333v46.933333c0 32 25.6 59.733333 57.6 59.733334h29.866667c2.133333 2.133333 4.266667 6.4 4.266667 8.533333l-17.066667 29.866667c-14.933333 27.733333-6.4 64 21.333333 81.066666l38.4 23.466667c8.533333 6.4 19.2 8.533333 29.866667 8.533333 4.266667 0 10.666667 0 14.933333-2.133333 14.933333-4.266667 27.733333-14.933333 36.266667-27.733333l14.933333-27.733334h8.533334l14.933333 27.733334c8.533333 14.933333 21.333333 23.466667 36.266667 27.733333 14.933333 4.266667 29.866667 2.133333 42.666666-6.4l38.4-23.466667c25.6-17.066667 36.266667-53.333333 21.333334-81.066666l-17.066667-29.866667c2.133333-2.133333 4.266667-6.4 4.266667-8.533333h29.866666c32 0 57.6-27.733333 57.6-59.733334V211.2c-2.133333-32-27.733333-59.733333-59.733333-59.733333zM789.333333 320c-46.933333 0-85.333333-38.4-85.333333-85.333333s38.4-85.333333 85.333333-85.333334 85.333333 38.4 85.333334 85.333334-38.4 85.333333-85.333334 85.333333z" p-id="10867"></path></svg>