<?xml version="1.0" standalone="no"?><!DOCTYPE svg PUBLIC "-//W3C//DTD SVG 1.1//EN" "http://www.w3.org/Graphics/SVG/1.1/DTD/svg11.dtd"><svg t="1568808650327" class="icon" viewBox="0 0 1026 1024" version="1.1" xmlns="http://www.w3.org/2000/svg" p-id="10866" xmlns:xlink="http://www.w3.org/1999/xlink" width="200.390625" height="200"><defs><style type="text/css"></style></defs><path d="M825.70666667 203.62666667c-62.93333333 0-155.2-21.12-279.46666667-101.01333334C465.70666667 50.88 387.2 33.92 318.93333333 33.92c-71.04 0-131.2 18.34666667-171.30666666 35.2V34.34666667h-53.33333334v955.73333333h53.33333334V672.96c47.89333333-25.92 123.84-57.38666667 209.81333333-57.38666667 60.16 0 125.12 15.46666667 188.90666667 58.88 119.36 81.49333333 210.77333333 103.25333333 274.34666666 103.25333334 72.85333333 0 109.22666667-28.58666667 109.22666667-28.58666667V177.06666667c-0.10666667 0-33.6 26.56-104.21333333 26.56z m50.77333333 512.53333333c-12.8 4.26666667-31.36 8.21333333-55.89333333 8.21333333-30.4 0-63.68-6.08-98.98666667-18.24-45.54666667-15.57333333-94.4-41.06666667-145.28-75.73333333-66.34666667-45.22666667-139.94666667-68.16-218.98666667-68.16-82.77333333 0-156.48 25.38666667-209.70666666 50.88V127.68c8.64-4.26666667 19.52-9.17333333 32.21333333-13.97333333 31.46666667-12.05333333 81.17333333-26.45333333 139.2-26.45333334 69.44 0 136.21333333 20.26666667 198.50666667 60.26666667 112.96 72.64 216.74666667 109.44 308.26666666 109.44 17.70666667 0 34.66666667-1.38666667 50.77333334-4.16v463.36z"  ></path></svg>