<?xml version="1.0" standalone="no"?><!DOCTYPE svg PUBLIC "-//W3C//DTD SVG 1.1//EN" "http://www.w3.org/Graphics/SVG/1.1/DTD/svg11.dtd"><svg t="1568808650327" class="icon" viewBox="0 0 1026 1024" version="1.1" xmlns="http://www.w3.org/2000/svg" p-id="10866" xmlns:xlink="http://www.w3.org/1999/xlink" width="200.390625" height="200"><defs><style type="text/css"></style></defs><path d="M358.4 460.8h-204.8A51.2 51.2 0 0 0 102.4 512v358.4c0 28.2624 22.9376 51.2 51.2 51.2h204.8a51.2 51.2 0 0 0 51.2-51.2V512a51.2 51.2 0 0 0-51.2-51.2z m0 409.6h-204.8V512h204.8v358.4zM870.4 102.4h-204.8a51.2 51.2 0 0 0-51.2 51.2V512c0 28.2624 22.9376 51.2 51.2 51.2h204.8A51.2 51.2 0 0 0 921.6 512V153.6a51.2 51.2 0 0 0-51.2-51.2z m0 409.6h-204.8V153.6h204.8V512zM153.6 409.6H512a51.2 51.2 0 0 0 51.2-51.2v-204.8A51.2 51.2 0 0 0 512 102.4H153.6a51.2 51.2 0 0 0-51.2 51.2v204.8c0 28.2624 22.9376 51.2 51.2 51.2z m0-256H512v204.8H153.6v-204.8z m716.8 460.8H512a51.2 51.2 0 0 0-51.2 51.2v204.8c0 28.2624 22.9376 51.2 51.2 51.2h358.4a51.2 51.2 0 0 0 51.2-51.2v-204.8a51.2 51.2 0 0 0-51.2-51.2z m0 256H512v-204.8h358.4v204.8z" fill="#3B568F" ></path></svg>