<?xml version="1.0" standalone="no"?><!DOCTYPE svg PUBLIC "-//W3C//DTD SVG 1.1//EN" "http://www.w3.org/Graphics/SVG/1.1/DTD/svg11.dtd"><svg t="1568808650327" class="icon" viewBox="0 0 1026 1024" version="1.1" xmlns="http://www.w3.org/2000/svg" p-id="10866" xmlns:xlink="http://www.w3.org/1999/xlink" width="200.390625" height="200"><defs><style type="text/css"></style></defs><path d="M933.875 425.0418396c0 23.52035523-17.80279541 42.76345825-39.55325317 42.76345825H129.67825318C107.92779541 467.80529786 90.125 448.55395508 90.125 425.0418396c0-23.51705933 17.80279541-42.77087402 39.55325317-42.77087403h764.64349365c21.75045776 0 39.55325317 19.25381469 39.55325318 42.77087403z m0 176.75903321c0 23.51705933-17.80279541 42.76757813-39.55325317 42.76757812H129.67825318C107.92779541 644.5692749 90.125 625.31793213 90.125 601.80087281c0-23.5211792 17.81103516-42.76345825 39.55325317-42.76345826h764.64349365c21.75045776 0 39.55325317 19.2505188 39.55325318 42.76345826zM362.96606445 276.79150391c-21.75128174 0-26.96044922-13.60629273-11.58508301-30.24481201l132.38058473-143.12438966c15.37866211-16.63110352 40.54614258-16.63110352 55.93304443 0l132.37399292 143.1326294c15.38525391 16.63851929 10.16455078 30.24481201-11.58673096 30.24481201H362.96606445v-0.00823974zM660.48187256 747.1953125c21.75128174 0 26.96374512 13.6104126 11.58673096 30.24893188L539.68554688 920.57769776c-15.38360596 16.63110352-40.55438232 16.63110352-55.93551636 0l-132.36987305-143.1326294c-15.38278198-16.63110352-10.16619873-30.24893188 11.58508301-30.24893188h297.51580811z"  ></path></svg>