<?xml version="1.0" standalone="no"?><!DOCTYPE svg PUBLIC "-//W3C//DTD SVG 1.1//EN" "http://www.w3.org/Graphics/SVG/1.1/DTD/svg11.dtd"><svg t="1568808650327" class="icon" viewBox="0 0 1026 1024" version="1.1" xmlns="http://www.w3.org/2000/svg" p-id="10866" xmlns:xlink="http://www.w3.org/1999/xlink" width="200.390625" height="200"><defs><style type="text/css"></style></defs><path d="M936.70378526 908.32694083H410.48756386c-33.20588672 0-33.20588672-49.7839377 1e-8-49.78393771h526.21622139c33.15610283 0 33.15610283 49.7839377 0 49.7839377zM936.70378526 559.83937695H410.48756386c-33.20588672 0-33.20588672-49.7839377 1e-8-49.7839377h526.21622139c33.15610283 0 33.15610283 49.7839377 0 49.7839377zM936.70378526 211.35181308H410.48756386c-33.20588672 0-33.20588672-49.7839377 1e-8-49.78393769h526.21622139c33.15610283 0 33.15610283 49.7839377 0 49.7839377zM156.58948145 205.12882109L273.03411201 93.81193614a24.89196885 24.89196885 0 0 1 34.350917 35.94400311L173.01818076 258.39763437a24.89196885 24.89196885 0 0 1-35.24702784-0.89611083L72.95246651 189.24774453a24.89196885 24.89196885 0 0 1 36.09335477-34.25134922l47.54366016 50.13242578zM156.58948145 553.61638497l116.39484667-111.31688497a24.89196885 24.89196885 0 0 1 34.35091699 35.94400312L173.01818076 606.88519824a24.89196885 24.89196885 0 0 1-35.24702784-0.89611084L72.95246651 537.73530839a24.89196885 24.89196885 0 0 1 36.09335477-34.25134922l47.54366016 50.13242579zM272.98432812 790.78706386a24.89196885 24.89196885 0 0 1 34.35091699 35.94400313L173.01818076 955.37276211a24.89196885 24.89196885 0 0 1-35.24702784-0.89611084l-64.71911865-68.25377812a24.89196885 24.89196885 0 1 1 36.09335479-34.25134922l47.54366016 50.1324249 116.34506279-111.31688497z" fill="#8D959D" ></path></svg>