<?xml version="1.0" encoding="UTF-8"?>
<svg width="18px" height="18px" viewBox="0 0 18 18" version="1.1" xmlns="http://www.w3.org/2000/svg" xmlns:xlink="http://www.w3.org/1999/xlink">
    <!-- Generator: Sketch 64 (93537) - https://sketch.com -->
    <title>新增</title>
    <link type="text/css" href="./aaStyle" />
     <desc>Created with Sketch.</desc>
    <g id="资质管理" stroke="none" stroke-width="1" fill="none" fill-rule="evenodd">
        <g transform="translate(-1308.000000, -125.000000)" fill="#3D568E" fill-rule="nonzero" id="编组-4">
            <g transform="translate(1298.000000, 118.000000)">
                <g id="编组-10">
                    <path class="xinz" d="M19,7 C23.9705627,7 28,11.0294373 28,16 C28,20.9705627 23.9705627,25 19,25 C14.0294373,25 10,20.9705627 10,16 C10,11.0294373 14.0294373,7 19,7 Z M19,8.71428571 C14.9762111,8.71428571 11.7142857,11.9762111 11.7142857,16 C11.7142857,20.0237889 14.9762111,23.2857143 19,23.2857143 C23.0237889,23.2857143 26.2857143,20.0237889 26.2857143,16 C26.2857143,11.9762111 23.0237889,8.71428571 19,8.71428571 Z M19,11.0714286 C19.4518693,11.0714286 19.8220708,11.4210905 19.8547918,11.8646019 L19.8571429,11.9285714 L19.857,15.357 L23.2857143,15.3571429 C23.7591012,15.3571429 24.1428571,15.7408988 24.1428571,16.2142857 C24.1428571,16.6661551 23.7931952,17.0363565 23.3496839,17.0690775 L23.2857143,17.0714286 L19.857,17.071 L19.8571429,20.5 C19.8571429,20.9733869 19.4733869,21.3571429 19,21.3571429 C18.5481307,21.3571429 18.1779292,21.0074809 18.1452082,20.5639696 L18.1428571,20.5 L18.142,17.071 L14.7142857,17.0714286 C14.2408988,17.0714286 13.8571429,16.6876726 13.8571429,16.2142857 C13.8571429,15.7624164 14.2068048,15.3922149 14.6503161,15.3594939 L14.7142857,15.3571429 L18.142,15.357 L18.1428571,11.9285714 C18.1428571,11.4551845 18.5266131,11.0714286 19,11.0714286 Z" id="形状结合"></path>
                </g>
            </g>
        </g>
    </g>
</svg>