<?xml version="1.0" encoding="UTF-8"?>
<svg width="42px" height="44px" viewBox="0 0 42 44" version="1.1" xmlns="http://www.w3.org/2000/svg" xmlns:xlink="http://www.w3.org/1999/xlink">
    <title></title>
    <g id="机务管理系统" stroke="none" stroke-width="1"  fill-rule="evenodd">
        <g id="面线" transform="translate(-308.000000, -309.000000)"  fill-rule="nonzero">
            <path d="M329,309.190307 C335.627417,309.190307 341,314.56289 341,321.190307 C341,324.984882 339.238751,328.368095 336.48914,330.567059 C337.451018,330.932907 338.385628,331.371449 339.28638,331.878432 C340.248954,332.420211 340.590076,333.639731 340.048296,334.602305 C339.506517,335.564879 338.286998,335.906001 337.324424,335.364221 C334.804341,333.945807 331.959201,333.190307 328.999646,333.190307 L329.035,333.190307 L329,333.190307 L329,333.190307 C319.611159,333.190307 312,340.801466 312,350.190307 C312,351.294876 311.104569,352.190307 310,352.190307 C308.895431,352.190307 308,351.294876 308,350.190307 C308,341.230877 313.610703,333.581896 321.510166,330.565308 C318.760823,328.367276 317,324.984422 317,321.190307 C317,314.56289 322.372583,309.190307 329,309.190307 Z M349.1094,329.526206 C349.982505,330.108276 350.250294,331.258048 349.749572,332.159547 L349.664101,332.299707 L337.664101,350.299707 C337.022047,351.262787 335.708996,351.473722 334.80069,350.790997 L334.67944,350.692345 L327.67944,344.538097 C326.849887,343.808771 326.768636,342.545051 327.497961,341.715498 C328.188901,340.929605 329.359464,340.815319 330.186111,341.425589 L330.32056,341.534019 L335.603,346.178 L346.335899,330.080906 C346.948604,329.161849 348.190343,328.913501 349.1094,329.526206 Z M329,313.190307 C324.581722,313.190307 321,316.772029 321,321.190307 C321,325.608585 324.581722,329.190307 329,329.190307 L328.982,329.190307 L328.999646,329.190307 C329.011668,329.190307 329.023688,329.190317 329.035708,329.190337 C333.437251,329.171302 337,325.596867 337,321.190307 C337,316.772029 333.418278,313.190307 329,313.190307 Z" id="形状结合"></path>
        </g>
    </g>
</svg>
