<?xml version="1.0" encoding="UTF-8"?>
<svg width="42px" height="42px" viewBox="0 0 42 42" version="1.1" xmlns="http://www.w3.org/2000/svg" xmlns:xlink="http://www.w3.org/1999/xlink">

    <g id="机务管理系统" stroke="none" stroke-width="1" fill="none" fill-rule="evenodd">
        <g id="面线" transform="translate(-536.000000, -140.000000)" fill="#ffffff" fill-rule="nonzero">
            <path d="M538,145 C539.054362,145 539.918165,145.815878 539.994514,146.850738 L540,147 L540,177.999307 L576,178 C577.054362,178 577.918165,178.815878 577.994514,179.850738 L578,180 C578,181.054362 577.184122,181.918165 576.149262,181.994514 L576,182 L538,182 C536.945638,182 536.081835,181.184122 536.005486,180.149262 L536,180 L536,147 C536,145.895431 536.895431,145 538,145 Z M547,156 C548.054362,156 548.918165,156.815878 548.994514,157.850738 L549,158 L549,175 C549,176.104569 548.104569,177 547,177 C545.945638,177 545.081835,176.184122 545.005486,175.149262 L545,175 L545,158 C545,156.895431 545.895431,156 547,156 Z M555.666667,140 C556.721028,140 557.584832,140.815878 557.661181,141.850738 L557.666667,142 L557.666667,175 C557.666667,176.104569 556.771236,177 555.666667,177 C554.612305,177 553.748502,176.184122 553.672152,175.149262 L553.666667,175 L553.666667,142 C553.666667,140.895431 554.562097,140 555.666667,140 Z M564.333333,164 C565.387695,164 566.251498,164.815878 566.327848,165.850738 L566.333333,166 L566.333333,175 C566.333333,176.104569 565.437903,177 564.333333,177 C563.278972,177 562.415168,176.184122 562.338819,175.149262 L562.333333,175 L562.333333,166 C562.333333,164.895431 563.228764,164 564.333333,164 Z M573,149 C574.054362,149 574.918165,149.815878 574.994514,150.850738 L575,151 L575,175 C575,176.104569 574.104569,177 573,177 C571.945638,177 571.081835,176.184122 571.005486,175.149262 L571,175 L571,151 C571,149.895431 571.895431,149 573,149 Z" id="形状结合"></path>
        </g>
    </g>
</svg>
