<?xml version="1.0" encoding="UTF-8"?>
<svg width="16px" height="16px" viewBox="0 0 16 16" version="1.1" xmlns="http://www.w3.org/2000/svg" xmlns:xlink="http://www.w3.org/1999/xlink">
    <title></title>
    <g id="页面-1" stroke="none" stroke-width="1" fill="none" fill-rule="evenodd">
        <g id="新增工单模板配置" transform="translate(-1175.000000, -126.000000)"  >
            <g id="编组-17" transform="translate(1054.000000, 118.000000)">
                <g id="编组-18" transform="translate(110.000000, 0.000000)">
                    <g id="编组-23">
                        <g id="编组" transform="translate(11.000000, 8.000000)">
                            <g id="复制">
                                <path d="M14.4,12.8 L12.8,12.8 L12.8,14.4 C12.8,15.28 12.08,16 11.2,16 L1.6,16 C0.72,16 0,15.28 0,14.4 L0,4.8 C0,3.92 0.72,3.2 1.6,3.2 L3.2,3.2 L3.2,1.6 C3.2,0.72 3.92,0 4.8,0 L14.4,0 C15.28,0 16,0.72 16,1.6 L16,11.2 C16,12.08 15.28,12.8 14.4,12.8 Z M2.4,4.8 C1.92,4.8 1.6,5.12 1.6,5.6 L1.6,13.6 C1.6,14.08 1.92,14.4 2.4,14.4 L10.4,14.4 C10.88,14.4 11.2,14.08 11.2,13.6 L11.2,5.6 C11.2,5.12 10.88,4.8 10.4,4.8 L2.4,4.8 Z M14.4,2.4 C14.4,1.92 14.08,1.6 13.6,1.6 L5.6,1.6 C5.12,1.6 4.8,1.92 4.8,2.4 L4.8,3.2 L11.2,3.2 C12.08,3.2 12.8,3.92 12.8,4.8 L12.8,11.2 L13.6,11.2 C14.08,11.2 14.4,10.88 14.4,10.4 L14.4,2.4 Z" fill="#979797"  id="形状"></path>
                            </g>
                        </g>
                    </g>
                </g>
            </g>
        </g>
    </g>
</svg>
