<?xml version="1.0" encoding="UTF-8"?>
<svg width="16px" height="16px" viewBox="0 0 16 16" version="1.1" xmlns="http://www.w3.org/2000/svg" xmlns:xlink="http://www.w3.org/1999/xlink">
    <!-- Generator: Sketch 64 (93537) - https://sketch.com -->
    <title></title>
    <desc>Created with Sketch.</desc>
    <g id="资质管理" stroke="none" stroke-width="1" fill="none" fill-rule="evenodd">
        <g transform="translate(-39.000000, -514.000000)" fill="#FFFFFF" fill-rule="nonzero" id="形状结合">
            <path d="M50.8095238,528.47619 C51.2303122,528.47619 51.5714286,528.817307 51.5714286,529.238095 C51.5714286,529.639757 51.260618,529.968825 50.8663857,529.99791 L50.8095238,530 L43.1904762,530 C42.7696878,530 42.4285714,529.658884 42.4285714,529.238095 C42.4285714,528.836434 42.739382,528.507366 43.1336143,528.47828 L43.1904762,528.47619 L50.8095238,528.47619 Z M52.7142857,514 C53.9766509,514 55,515.023349 55,516.285714 L55,516.285714 L55,525.809524 C55,527.071889 53.9766509,528.095238 52.7142857,528.095238 L52.7142857,528.095238 L41.2857143,528.095238 C40.0233491,528.095238 39,527.071889 39,525.809524 L39,525.809524 L39,516.285714 C39,515.023349 40.0233491,514 41.2857143,514 L41.2857143,514 Z M52.7142857,515.52381 L41.2857143,515.52381 C40.8649259,515.52381 40.5238095,515.864926 40.5238095,516.285714 L40.5238095,516.285714 L40.5238095,525.809524 C40.5238095,526.230312 40.8649259,526.571429 41.2857143,526.571429 L41.2857143,526.571429 L52.7142857,526.571429 C53.1350741,526.571429 53.4761905,526.230312 53.4761905,525.809524 L53.4761905,525.809524 L53.4761905,516.285714 C53.4761905,515.864926 53.1350741,515.52381 52.7142857,515.52381 L52.7142857,515.52381 Z M47.3809524,516.666667 C47.782614,516.666667 48.111682,516.977477 48.1407673,517.37171 L48.1428571,517.428571 L48.1428571,525.267399 C48.1428571,525.688188 47.8017408,526.029304 47.3809524,526.029304 C46.9792907,526.029304 46.6502228,525.718493 46.6211374,525.324261 L46.6190476,525.267399 L46.6190476,517.428571 C46.6190476,517.007783 46.960164,516.666667 47.3809524,516.666667 Z M51.1904762,520.47619 C51.5921378,520.47619 51.9212058,520.787001 51.9502911,521.181233 L51.952381,521.238095 L51.952381,525.267399 C51.952381,525.688188 51.6112646,526.029304 51.1904762,526.029304 C50.7888146,526.029304 50.4597466,525.718493 50.4306612,525.324261 L50.4285714,525.267399 L50.4285714,521.238095 C50.4285714,520.817307 50.7696878,520.47619 51.1904762,520.47619 Z M43.5714286,518.190476 C43.9730902,518.190476 44.3021581,518.501287 44.3312435,518.895519 L44.3333333,518.952381 L44.3333333,525.047619 C44.3333333,525.468407 43.992217,525.809524 43.5714286,525.809524 C43.1697669,525.809524 42.840699,525.498713 42.8116136,525.104481 L42.8095238,525.047619 L42.8095238,518.952381 C42.8095238,518.531593 43.1506402,518.190476 43.5714286,518.190476 Z"></path>
        </g>
    </g>
</svg>
