<?xml version="1.0" encoding="UTF-8"?>
<svg width="42px" height="42px" viewBox="0 0 42 42" version="1.1" xmlns="http://www.w3.org/2000/svg" xmlns:xlink="http://www.w3.org/1999/xlink">

    <g id="机务管理系统" stroke="none" stroke-width="1" fill-rule="evenodd">
        <g id="面线" transform="translate(-673.000000, -477.000000)"  fill-rule="nonzero">
            <path d="M694,477 C705.59798,477 715,486.40202 715,498 C715,509.59798 705.59798,519 694,519 C682.40202,519 673,509.59798 673,498 C673,486.40202 682.40202,477 694,477 Z M694,481 C684.611159,481 677,488.611159 677,498 C677,507.388841 684.611159,515 694,515 C703.388841,515 711,507.388841 711,498 C711,488.611159 703.388841,481 694,481 Z M687.95,487.74 L690.084,488.774 L689.864,489.5 L695.078,489.5 C694.902,489.016 694.726,488.576 694.528,488.158 L694.528,488.158 L696.86,487.762 C697.036,488.29 697.212,488.862 697.388,489.5 L697.388,489.5 L703.482,489.5 L703.482,491.524 L689.776,491.524 L689.776,489.764 C689.358,490.996 688.852,492.162 688.28,493.306 L688.28,493.306 L688.28,508.332 L685.97,508.332 L685.97,497.024 C685.464,497.706 684.936,498.366 684.386,499.004 L684.386,499.004 L683.616,496.54 C685.552,494.054 687.004,491.128 687.95,487.74 L687.95,487.74 Z M703.614,497.706 L703.614,501.842 L702.316,501.842 L702.316,503.096 L697.85,503.096 L697.85,506 C697.85,507.408 697.08,508.134 695.54,508.134 L695.54,508.134 L693.098,508.134 L692.592,505.912 C693.34,506 694.066,506.044 694.748,506.044 C695.254,506.044 695.518,505.824 695.518,505.428 L695.518,505.428 L695.518,503.096 L690.986,503.096 L690.986,501.842 L689.424,501.842 L689.424,497.706 L703.614,497.706 Z M701.414,499.686 L691.624,499.686 L691.624,501.138 L701.414,501.138 L701.414,499.686 Z M701.876,492.36 L701.876,496.848 L691.052,496.848 L691.052,492.36 L701.876,492.36 Z M699.654,494.054 L693.296,494.054 L693.296,495.176 L699.654,495.176 L699.654,494.054 Z" id="形状结合"></path>
        </g>
    </g>
</svg>
