<?xml version="1.0" encoding="UTF-8"?>
<svg width="42px" height="42px" viewBox="0 0 42 42" version="1.1" xmlns="http://www.w3.org/2000/svg" xmlns:xlink="http://www.w3.org/1999/xlink">
    <g id="机务管理系统" stroke="none" stroke-width="1" fill-rule="evenodd">
        <g id="面线" transform="translate(-314.000000, -574.000000)" fill-rule="nonzero">
            <path d="M335,574 C346.59798,574 356,583.40202 356,595 C356,606.59798 346.59798,616 335,616 C323.40202,616 314,606.59798 314,595 C314,583.40202 323.40202,574 335,574 Z M335,578 C325.611159,578 318,585.611159 318,595 C318,604.388841 325.611159,612 335,612 C344.388841,612 352,604.388841 352,595 C352,585.611159 344.388841,578 335,578 Z M328.122,583 L330.644,584.222 L330.384,585.08 L336.546,585.08 C336.338,584.508 336.13,583.988 335.896,583.494 L335.896,583.494 L338.652,583.026 C338.86,583.65 339.068,584.326 339.276,585.08 L339.276,585.08 L346.478,585.08 L346.478,587.472 L330.28,587.472 L330.28,585.392 C329.786,586.848 329.188,588.226 328.512,589.578 L328.512,589.578 L328.512,607.336 L325.782,607.336 L325.782,593.972 C325.184,594.778 324.56,595.558 323.91,596.312 L323.91,596.312 L323,593.4 C325.288,590.462 327.004,587.004 328.122,583 L328.122,583 Z M346.634,594.778 L346.634,599.666 L345.1,599.666 L345.1,601.148 L339.822,601.148 L339.822,604.58 C339.822,606.244 338.912,607.102 337.092,607.102 L337.092,607.102 L334.206,607.102 L333.608,604.476 C334.492,604.58 335.35,604.632 336.156,604.632 C336.754,604.632 337.066,604.372 337.066,603.904 L337.066,603.904 L337.066,601.148 L331.71,601.148 L331.71,599.666 L329.864,599.666 L329.864,594.778 L346.634,594.778 Z M344.034,597.118 L332.464,597.118 L332.464,598.834 L344.034,598.834 L344.034,597.118 Z M344.58,588.46 L344.58,593.764 L331.788,593.764 L331.788,588.46 L344.58,588.46 Z M341.954,590.462 L334.44,590.462 L334.44,591.788 L341.954,591.788 L341.954,590.462 Z" id="形状结合"></path>
        </g>
    </g>
</svg>
