<?xml version="1.0" encoding="UTF-8"?>
<svg width="38px" height="42px" viewBox="0 0 38 42" version="1.1" xmlns="http://www.w3.org/2000/svg" xmlns:xlink="http://www.w3.org/1999/xlink">

    <g id="机务管理系统" stroke="none" stroke-width="1"  fill-rule="evenodd">
        <g id="面线" transform="translate(-673.000000, -378.000000)" fill-rule="nonzero">
            <path d="M698,378 C699.104569,378 700,378.895431 700,380 L705,380 C708.313708,380 711,382.686292 711,386 L711,386 L711,414 C711,417.313708 708.313708,420 705,420 L705,420 L679,420 C675.686292,420 673,417.313708 673,414 L673,414 L673,386 C673,382.686292 675.686292,380 679,380 L679,380 L684,380 L684,380 C684,378.895431 684.895431,378 686,378 L698,378 Z M705,384 L679,384 C677.895431,384 677,384.895431 677,386 L677,386 L677,414 C677,415.104569 677.895431,416 679,416 L679,416 L705,416 C706.104569,416 707,415.104569 707,414 L707,414 L707,386 C707,384.895431 706.104569,384 705,384 L705,384 Z M687.286999,392.468954 L687.414214,392.585786 L692.5,397.671 L697.585786,392.585786 C698.366835,391.804738 699.633165,391.804738 700.414214,392.585786 C701.154154,393.325727 701.193099,394.501211 700.531046,395.286999 L700.414214,395.414214 L695.329,400.5 L700.414214,405.585786 C701.195262,406.366835 701.195262,407.633165 700.414214,408.414214 C699.674273,409.154154 698.498789,409.193099 697.713001,408.531046 L697.585786,408.414214 L692.5,403.329 L687.414214,408.414214 C686.633165,409.195262 685.366835,409.195262 684.585786,408.414214 C683.845846,407.674273 683.806901,406.498789 684.468954,405.713001 L684.585786,405.585786 L689.671,400.5 L684.585786,395.414214 C683.804738,394.633165 683.804738,393.366835 684.585786,392.585786 C685.325727,391.845846 686.501211,391.806901 687.286999,392.468954 Z" id="不合格"></path>
        </g>
    </g>
</svg>
