<?xml version="1.0" encoding="UTF-8"?>
<svg width="42px" height="42px" viewBox="0 0 42 42" version="1.1" xmlns="http://www.w3.org/2000/svg" xmlns:xlink="http://www.w3.org/1999/xlink">
    <g id="机务管理系统" stroke="none" stroke-width="1"  fill-rule="evenodd">
        <g id="面线" transform="translate(-196.000000, -418.000000)" >
            <path d="M236,456 C237.104569,456 238,456.895431 238,458 C238,459.104569 237.104569,460 236,460 L198,460 C196.895431,460 196,459.104569 196,458 C196,456.895431 196.895431,456 198,456 L236,456 Z M217,418 C218.104569,418 219,418.895431 219,420 L219,446.485 L226.899495,438.585786 C227.645041,437.84024 228.832755,437.806352 229.618499,438.484121 L229.727922,438.585786 C230.473468,439.331333 230.507357,440.519047 229.829587,441.30479 L229.727922,441.414214 L218.414214,452.727922 C217.668667,453.473468 216.480953,453.507357 215.69521,452.829587 L215.585786,452.727922 L204.272078,441.414214 C203.491029,440.633165 203.491029,439.366835 204.272078,438.585786 C205.017624,437.84024 206.205338,437.806352 206.991082,438.484121 L207.100505,438.585786 L215,446.485 L215,420 C215,418.895431 215.895431,418 217,418 Z" id="下载备份"></path>
        </g>
    </g>
</svg>
