<?xml version="1.0" encoding="UTF-8"?>
<svg width="14px" height="14px" viewBox="0 0 14 14" version="1.1" xmlns="http://www.w3.org/2000/svg" xmlns:xlink="http://www.w3.org/1999/xlink">
    <title>形状结合</title>
    <g id="资质管理" stroke="none" stroke-width="1" fill="none" fill-rule="evenodd">
        <g id="模版管理" transform="translate(-516.000000, -450.000000)" fill="#3280E7">
            <g id="编组-10" transform="translate(300.000000, 176.000000)">
                <g id="编组-3" transform="translate(216.000000, 271.000000)">
                    <path d="M13.3333333,15.6666667 C13.7015232,15.6666667 14,15.9651435 14,16.3333333 C14,16.7015232 13.7015232,17 13.3333333,17 L0.666666667,17 C0.298476833,17 4.50902501e-17,16.7015232 0,16.3333333 C-4.50902501e-17,15.9651435 0.298476833,15.6666667 0.666666667,15.6666667 L13.3333333,15.6666667 Z M7,3 C7.36818983,3 7.66666667,3.29847683 7.66666667,3.66666667 L7.66609717,12.494 L10.2998316,9.86192881 C10.5483471,9.61341335 10.9442517,9.6021172 11.2061662,9.82804034 L11.2426407,9.86192881 C11.4911561,10.1104443 11.5024523,10.5063489 11.2765292,10.7682634 L11.2426407,10.8047379 L7.47140452,14.575974 C7.22288906,14.8244895 6.82698443,14.8357856 6.56506995,14.6098625 L6.52859548,14.575974 L2.75735931,10.8047379 C2.49700979,10.5443883 2.49700979,10.1222783 2.75735931,9.86192881 C3.00587477,9.61341335 3.40177941,9.6021172 3.66369388,9.82804034 L3.70016835,9.86192881 L6.33309717,12.495 L6.33333333,3.66666667 C6.33333333,3.29847683 6.63181017,3 7,3 Z" id="形状结合"></path>
                </g>
            </g>
        </g>
    </g>
</svg>