<?xml version="1.0" encoding="UTF-8"?>
<svg width="14px" height="14px" viewBox="0 0 14 14" version="1.1" xmlns="http://www.w3.org/2000/svg" xmlns:xlink="http://www.w3.org/1999/xlink">
    <title></title>
    <g id="资质管理" stroke="none" stroke-width="1" fill="none" fill-rule="evenodd">
        <g id="模版管理" transform="translate(-676.000000, -449.000000)" fill="#3280E7" fill-rule="nonzero">
            <g id="编组-10" transform="translate(300.000000, 176.000000)">
                <g id="编组-6" transform="translate(376.000000, 270.000000)">
                    <path d="M13.3295504,15.6591262 C13.6998295,15.6591262 14,15.9592911 14,16.3295631 C14,16.6830046 13.7264975,16.9725674 13.3795869,16.9981611 L13.3295504,17 L7.29550435,17 C6.92522528,17 6.62505479,16.6998352 6.62505479,16.3295631 C6.62505479,15.9761216 6.89855724,15.6865588 7.24546791,15.6609652 L7.29550435,15.6591262 L13.3295504,15.6591262 Z M8.66520804,3.44968046 C10.2132753,4.34345753 10.7787873,6.28550164 9.98276315,7.86149043 L9.89224762,8.02888122 L5.89609096,14.9504276 C5.8358976,15.0546855 5.74904367,15.1403174 5.6451602,15.198984 L5.56420504,15.2377976 L1.53914281,16.8458134 C1.16724849,16.9943855 0.75746319,16.7857409 0.64781327,16.4150391 L0.626849228,16.3191004 L0.00690061843,12.0292864 C-0.00924229105,11.9175835 0.00315202647,11.8042438 0.0421007088,11.6995757 L0.0898274066,11.5981798 L4.08598407,4.67663339 C5.01166423,3.07330832 7.06185263,2.52398279 8.66520804,3.44968046 Z M4.5760503,6.50781377 L1.36725095,12.0674155 L1.83228298,15.2846538 L4.8513443,14.0781836 L8.0600705,8.51931377 L4.5760503,6.50781377 Z M5.33106882,5.21398441 L5.24723678,5.34708296 L8.73099491,7.35843165 C9.24664083,6.46530671 8.9994438,5.34108459 8.19156911,4.74022789 L8.05938006,4.64981507 L7.99477116,4.6109112 C7.07856807,4.0819411 5.91919056,4.35570472 5.33106882,5.21398441 Z" id="形状结合"></path>
                </g>
            </g>
        </g>
    </g>
</svg>
