<?xml version="1.0" encoding="UTF-8"?>
<svg width="42px" height="42px" viewBox="0 0 42 42" version="1.1" xmlns="http://www.w3.org/2000/svg" xmlns:xlink="http://www.w3.org/1999/xlink">

    <g id="机务管理系统" stroke="none" stroke-width="1"  fill-rule="evenodd">
        <g id="面线" transform="translate(-369.000000, -574.000000)" fill-rule="nonzero">
            <path d="M390,574 C401.59798,574 411,583.40202 411,595 C411,606.59798 401.59798,616 390,616 C378.40202,616 369,606.59798 369,595 C369,583.40202 378.40202,574 390,574 Z M390,578 C380.611159,578 373,585.611159 373,595 C373,604.388841 380.611159,612 390,612 C399.388841,612 407,604.388841 407,595 C407,585.611159 399.388841,578 390,578 Z M392.13,582 C392.468,582.858 392.806,583.82 393.144,584.86 L393.144,584.86 L401.49,584.86 L401.49,593.076 L384.538,593.076 L384.538,594.168 C384.512,598.926 383.368,603.034 381.132,606.492 L381.132,606.492 L379,604.568 C380.872,601.864 381.834,598.406 381.86,594.168 L381.86,594.168 L381.86,584.86 L390.362,584.86 C390.024,584.002 389.66,583.196 389.296,582.468 L389.296,582.468 Z M401.178,595.962 L401.178,606.466 L398.526,606.466 L398.526,605.296 L388.178,605.296 L388.178,606.466 L385.526,606.466 L385.526,595.962 L401.178,595.962 Z M398.526,598.51 L388.178,598.51 L388.178,602.748 L398.526,602.748 L398.526,598.51 Z M398.786,587.408 L384.538,587.408 L384.538,590.58 L398.786,590.58 L398.786,587.408 Z" id="形状结合"></path>
        </g>
    </g>
</svg>
