<?xml version="1.0" encoding="UTF-8"?>
<svg width="42px" height="42px" viewBox="0 0 42 42" version="1.1" xmlns="http://www.w3.org/2000/svg" xmlns:xlink="http://www.w3.org/1999/xlink">
    <g id="机务管理系统" stroke="none" stroke-width="1" fill-rule="evenodd">
        <g id="面线" transform="translate(-734.000000, -477.000000)"  fill-rule="nonzero">
            <path d="M755,477 C766.59798,477 776,486.40202 776,498 C776,509.59798 766.59798,519 755,519 C743.40202,519 734,509.59798 734,498 C734,486.40202 743.40202,477 755,477 Z M755,481 C745.611159,481 738,488.611159 738,498 C738,507.388841 745.611159,515 755,515 C764.388841,515 772,507.388841 772,498 C772,488.611159 764.388841,481 755,481 Z M756.11,488 C756.396,488.726 756.682,489.54 756.968,490.42 L756.968,490.42 L764.03,490.42 L764.03,497.372 L749.686,497.372 L749.686,498.296 C749.664,502.322 748.696,505.798 746.804,508.724 L746.804,508.724 L745,507.096 C746.584,504.808 747.398,501.882 747.42,498.296 L747.42,498.296 L747.42,490.42 L754.614,490.42 C754.328,489.694 754.02,489.012 753.712,488.396 L753.712,488.396 Z M763.766,499.814 L763.766,508.702 L761.522,508.702 L761.522,507.712 L752.766,507.712 L752.766,508.702 L750.522,508.702 L750.522,499.814 L763.766,499.814 Z M761.522,501.97 L752.766,501.97 L752.766,505.556 L761.522,505.556 L761.522,501.97 Z M761.742,492.576 L749.686,492.576 L749.686,495.26 L761.742,495.26 L761.742,492.576 Z" id="形状结合"></path>
        </g>
    </g>
</svg>
