<?xml version="1.0" encoding="UTF-8"?>
<svg width="42px" height="42px" viewBox="0 0 42 42" version="1.1" xmlns="http://www.w3.org/2000/svg" xmlns:xlink="http://www.w3.org/1999/xlink">
    <g id="机务管理系统" stroke="none" stroke-width="1" fill-rule="evenodd">
        <g id="面线" transform="translate(-199.000000, -574.000000)"  fill-rule="nonzero">
            <path d="M233,574 C237.418278,574 241,577.581722 241,582 L241,582 L241,602.571429 C241,606.989707 237.418278,610.571429 233,610.571429 L233,610.571429 L226.663,610.571 L221.35656,615.469607 C220.632999,616.137509 219.539491,616.174615 218.774825,615.580924 L218.774825,615.580924 L218.64344,615.469607 L213.336,610.571 L207,610.571429 C202.665086,610.571429 199.135457,607.123591 199.003807,602.820608 L199.003807,602.820608 L199,602.571429 L199,582 C199,577.581722 202.581722,574 207,574 L207,574 Z M233,578 L207,578 C204.790861,578 203,579.790861 203,582 L203,582 L203,602.571429 C203,604.780568 204.790861,606.571429 207,606.571429 L207,606.571429 L214.119048,606.571429 C214.621828,606.571429 215.106163,606.760796 215.475608,607.101822 L215.475608,607.101822 L220,611.278 L224.524392,607.101822 C224.847656,606.803424 225.258884,606.62114 225.693463,606.580232 L225.693463,606.580232 L225.880952,606.571429 L233,606.571429 C235.209139,606.571429 237,604.780568 237,602.571429 L237,602.571429 L237,582 C237,579.790861 235.209139,578 233,578 L233,578 Z M221,595 C222.104569,595 223,595.895431 223,597 C223,598.054362 222.184122,598.918165 221.149262,598.994514 L221,599 L211,599 C209.895431,599 209,598.104569 209,597 C209,595.945638 209.815878,595.081835 210.850738,595.005486 L211,595 L221,595 Z M229,585.5 C230.104569,585.5 231,586.395431 231,587.5 C231,588.554362 230.184122,589.418165 229.149262,589.494514 L229,589.5 L211,589.5 C209.895431,589.5 209,588.604569 209,587.5 C209,586.445638 209.815878,585.581835 210.850738,585.505486 L211,585.5 L229,585.5 Z" id="评论"></path>
        </g>
    </g>
</svg>
