<?xml version="1.0" standalone="no"?><!DOCTYPE svg PUBLIC "-//W3C//DTD SVG 1.1//EN"
        "http://www.w3.org/Graphics/SVG/1.1/DTD/svg11.dtd">
<svg class="icon" width="42px" height="42.00px" viewBox="110 260 800 500" version="1.1"
     xmlns="http://www.w3.org/2000/svg">
    <path d="M341.23950195 881.18245442a23.18664551 23.18664551 0 0 1-23.18664551-23.23608398V739.98616536H139.62939453A23.08776856 23.08776856 0 0 1 116.4921875 716.84895833V208.67085774C116.4921875 195.86629231 126.87426758 185.48421224 139.62939453 185.48421224H884.27172852c12.85400391 0 23.23608398 10.38208008 23.23608398 23.18664551v508.17810058a23.23608398 23.23608398 0 0 1-23.23608398 23.18664551H512.74157715l-156.3244629 135.46142577a22.98889161 22.98889161 0 0 1-15.1776123 5.68542481zM162.91491699 693.61287435h178.37402344c12.80456543 0 23.18664551 10.38208008 23.18664551 23.18664551v90.37353514l124.43664551-107.87475585a23.23608398 23.23608398 0 0 1 15.1776123-5.6854248h356.99523926v-461.7553711H162.91491699v461.7553711z"
            />
    <path d="M722.21240234 371.76839192H301.78759766a23.23608398 23.23608398 0 1 1 0-46.37329101h420.42480468a23.13720703 23.13720703 0 0 1 0 46.37329101zM722.21240234 485.52632649H301.78759766a23.23608398 23.23608398 0 1 1 0-46.37329102h420.42480468a23.13720703 23.13720703 0 0 1 0 46.37329102zM546.16198731 599.33369955H301.78759766a23.23608398 23.23608398 0 1 1 0-46.37329103h244.37438965a23.18664551 23.18664551 0 0 1-1e-8 46.37329102z"
           />
</svg>
