<?xml version="1.0" encoding="UTF-8"?>
<svg width="42px" height="43px" viewBox="0 0 42 43" version="1.1" xmlns="http://www.w3.org/2000/svg" xmlns:xlink="http://www.w3.org/1999/xlink">
    <g id="机务管理系统" stroke="none" stroke-width="1" fill-rule="evenodd">
        <g id="面线" transform="translate(-481.000000, -309.000000)" fill-rule="nonzero">
            <path d="M497.983649,313.146385 C499.441784,310.170733 503.036079,308.940543 506.011731,310.398679 C506.605322,310.689551 507.146767,311.076516 507.614184,311.543933 L507.614184,311.543933 L520.91225,324.841998 C523.255396,327.185144 523.255396,330.984134 520.91225,333.32728 C520.444833,333.794697 519.903388,334.181661 519.309797,334.472534 L519.309797,334.472534 L516.503696,335.847586 C514.890063,336.638301 513.049316,336.649147 511.468038,335.961088 L507.485954,348.688964 C507.236724,349.48573 506.51881,350.043874 505.685193,350.08897 L505.685193,350.08897 L483.258793,351.302166 C482.070562,351.366446 481.089398,350.385282 481.153678,349.197051 L481.153678,349.197051 L482.366874,326.770651 C482.41197,325.937034 482.970114,325.21912 483.76688,324.969891 L483.76688,324.969891 L496.495094,320.988144 C495.807035,319.406867 495.817881,317.566119 496.608597,315.952487 L496.608597,315.952487 Z M499.238689,324.320222 L486.286079,328.372899 L485.429689,344.197222 L489.609304,340.017067 C488.6625,337.981943 488.959412,335.519539 490.531339,333.800735 L490.70604,333.618076 C492.92184,331.402277 496.531324,331.449979 498.768594,333.68725 C501.005865,335.924521 501.053568,339.534005 498.837768,341.749804 C497.114126,343.473446 494.547155,343.827424 492.438777,342.84654 L488.258689,347.024222 L504.08325,346.168656 L508.134689,333.216222 L499.238689,324.320222 Z M495.940167,336.515677 C495.248506,335.824016 494.171193,335.809778 493.534467,336.446503 C492.897741,337.083229 492.911979,338.160542 493.60364,338.852204 C494.295302,339.543865 495.372615,339.558103 496.009341,338.921377 C496.646066,338.284652 496.631829,337.207338 495.940167,336.515677 Z M504.251606,313.990608 C503.259722,313.504563 502.061623,313.914627 501.575578,314.906511 L501.575578,314.906511 L500.200526,317.712612 C499.824315,318.480356 499.977726,319.402336 500.582278,320.006888 L500.582278,320.006888 L501.199689,320.624222 L501.212724,320.636518 L511.819326,331.24312 C511.823502,331.247296 511.827657,331.251488 511.831791,331.255695 L512.449294,331.873905 C513.053846,332.478456 513.975827,332.631867 514.74357,332.255656 L514.74357,332.255656 L517.549672,330.880604 C517.747535,330.783646 517.928017,330.654658 518.083823,330.498853 C518.864871,329.717804 518.864871,328.451474 518.083823,327.670426 L518.083823,327.670426 L504.785757,314.37236 C504.629951,314.216554 504.449469,314.087566 504.251606,313.990608 Z" id="形状结合"></path>
        </g>
    </g>
</svg>
