<?xml version="1.0" encoding="UTF-8"?>
<svg width="42px" height="43px" viewBox="0 0 42 43" version="1.1" xmlns="http://www.w3.org/2000/svg" xmlns:xlink="http://www.w3.org/1999/xlink">
    <g id="机务管理系统" stroke="none" stroke-width="1" fill-rule="evenodd">
        <g id="面线" transform="translate(-308.000000, -34.000000)" fill-rule="nonzero">
            <path d="M330,34.1903065 C331.104569,34.1903065 332,35.085737 332,36.1903065 C332,37.2446683 331.184122,38.1084716 330.149262,38.1848208 L330,38.1903065 L314,38.1903065 C312.945638,38.1903065 312.081835,39.0061843 312.005486,40.0410442 L312,40.1903065 L312,70.1903065 C312,71.2446683 312.815878,72.1084716 313.850738,72.1848208 L314,72.1903065 L330,72.1903065 C331.104569,72.1903065 332,73.085737 332,74.1903065 C332,75.2446683 331.184122,76.1084716 330.149262,76.1848208 L330,76.1903065 L314,76.1903065 C310.761603,76.1903065 308.122428,73.6247316 308.004138,70.4152448 L308,70.1903065 L308,40.1903065 C308,36.9519096 310.565575,34.3127348 313.775062,34.194445 L314,34.1903065 L330,34.1903065 Z M340.30479,45.1891462 L340.414214,45.2908116 L348.899495,53.7760929 C349.645041,54.5216393 349.67893,55.7093532 349.00116,56.4950967 L348.899495,56.6045201 L340.414214,65.0898014 C339.633165,65.87085 338.366835,65.87085 337.585786,65.0898014 C336.84024,64.3442551 336.806352,63.1565412 337.484121,62.3707977 L337.585786,62.2613743 L342.656,57.1903065 L322,57.1903065 C320.895431,57.1903065 320,56.294876 320,55.1903065 C320,54.1359447 320.815878,53.2721414 321.850738,53.1957922 L322,53.1903065 L342.656,53.1903065 L337.585786,48.1192387 C336.84024,47.3736923 336.806352,46.1859784 337.484121,45.400235 L337.585786,45.2908116 C338.331333,44.5452652 339.519047,44.5113767 340.30479,45.1891462 Z" id="形状结合"></path>
        </g>
    </g>
</svg>
