<?xml version="1.0" encoding="UTF-8"?>
<svg width="18px" height="18px" viewBox="0 0 18 18" version="1.1" xmlns="http://www.w3.org/2000/svg" xmlns:xlink="http://www.w3.org/1999/xlink">
    <!-- Generator: Sketch 64 (93537) - https://sketch.com -->
    <title>导出</title>
    <desc>Created with Sketch.</desc>
    <g id="资质管理" stroke="none" stroke-width="1" fill="none" fill-rule="evenodd">
        <g transform="translate(-1634.000000, -125.000000)" fill="#3D568E" fill-rule="nonzero" id="编组-4">
            <g transform="translate(1298.000000, 118.000000)">
                <g id="编组-15" transform="translate(328.000000, 0.000000)">
                    <path d="M17.5603518,7 C18.0403551,7 18.4294747,7.38375593 18.4294747,7.85714286 C18.4294747,8.3090122 18.0749257,8.67921362 17.6252155,8.71193468 L17.5603518,8.71428571 L10.6073687,8.71428571 C10.1491837,8.71428571 9.77380807,9.06394762 9.74062968,9.507459 L9.73824579,9.57142857 L9.73824579,22.4285714 C9.73824579,22.8804408 10.0927948,23.2506422 10.542505,23.2833633 L10.6073687,23.2857143 L17.5603518,23.2857143 C18.0403551,23.2857143 18.4294747,23.6694702 18.4294747,24.1428571 C18.4294747,24.5947265 18.0749257,24.9649279 17.6252155,24.997649 L17.5603518,25 L10.6073687,25 C9.20008622,25 8.05320259,23.9004679 8.00179842,22.5249735 L8,22.4285714 L8,9.57142857 C8,8.18354417 9.11489994,7.05246924 10.5096192,7.00177363 L10.6073687,7 L17.5603518,7 Z M22.0045549,11.6877427 L22.0520829,11.7319458 L25.739459,15.419322 C26.0634447,15.7433077 26.0816271,16.2559866 25.7914779,16.5930572 L25.7479302,16.6399762 L22.111381,20.2765253 C21.7766459,20.6112605 21.2301404,20.6074678 20.8907268,20.2680542 C20.5667411,19.9440685 20.5485588,19.4313895 20.838708,19.0943189 L20.8822557,19.0474 L23.072,16.857 L14.0838603,16.8571429 C13.6038569,16.8571429 13.2147374,16.4733869 13.2147374,16 C13.2147374,15.5481307 13.5692864,15.1779292 14.0189966,15.1452082 L14.0838603,15.1428571 L23.037,15.142 L20.8398998,12.9441289 C20.5159141,12.6201432 20.4977318,12.1074642 20.787881,11.7703936 L20.8314287,11.7234747 C21.1509485,11.4039548 21.6634245,11.3928869 22.0045549,11.6877427 Z" id="形状结合"></path>
                </g>
            </g>
        </g>
    </g>
</svg>