<?xml version="1.0" standalone="no"?><!DOCTYPE svg PUBLIC "-//W3C//DTD SVG 1.1//EN" "http://www.w3.org/Graphics/SVG/1.1/DTD/svg11.dtd"><svg t="1568808650327" class="icon" viewBox="0 0 1026 1024" version="1.1" xmlns="http://www.w3.org/2000/svg" p-id="10866" xmlns:xlink="http://www.w3.org/1999/xlink" width="200.390625" height="200"><defs><style type="text/css"></style></defs><path d="M925.4375 337.625c-22.5-53.4375-56.25-101.25-95.625-143.4375-42.1875-42.1875-90-73.125-143.4375-95.625-56.25-22.5-115.3125-36.5625-174.375-36.5625-61.875 0-118.125 11.25-174.375 36.5625-53.4375 22.5-101.25 56.25-143.4375 95.625-42.1875 42.1875-73.125 90-95.625 143.4375-22.5 56.25-36.5625 115.3125-36.5625 174.375 0 61.875 11.25 118.125 36.5625 174.375 22.5 53.4375 56.25 101.25 95.625 143.4375 42.1875 42.1875 90 73.125 143.4375 95.625 56.25 22.5 115.3125 36.5625 174.375 36.5625 61.875 0 118.125-11.25 174.375-36.5625 53.4375-22.5 101.25-56.25 143.4375-95.625 42.1875-42.1875 73.125-90 95.625-143.4375 22.5-56.25 36.5625-115.3125 36.5625-174.375 0-61.875-14.0625-120.9375-36.5625-174.375zM512 917c-222.1875 0-405-182.8125-405-405S287 107 512 107s405 182.8125 405 405-182.8125 405-405 405z m0 0" fill="" ></path><path d="M734.1875 433.25c-70.3125 16.875-129.375 28.125-135 30.9375h-2.8125c-73.125-28.125-143.4375-53.4375-216.5625-81.5625-11.25-5.625-22.5 0-30.9375 5.625-8.4375 2.8125-16.875 8.4375-25.3125 11.25-14.0625 5.625-8.4375 16.875-2.8125 22.5l104.0625 87.1875c5.625 5.625 0 11.25-2.8125 14.0625l-70.3125 14.0625h-5.625c-22.5-19.6875-56.25-36.5625-73.125-47.8125-11.25-8.4375-25.3125-5.625-33.75 0-5.625 2.8125-8.4375 8.4375-11.25 14.0625-2.8125 5.625 0 11.25 2.8125 16.875l56.25 84.375c5.625 8.4375 16.875 11.25 25.3125 14.0625 16.875 2.8125 28.125 5.625 47.8125 8.4375 8.4375 0 19.6875 0 30.9375-2.8125 149.0625-36.5625 427.5-115.3125 427.5-115.3125 22.5-8.4375 28.125-22.5 22.5-33.75-5.625-14.0625-25.3125-30.9375-50.625-36.5625-22.5-11.25-36.5625-11.25-56.25-5.625z m0 0" fill="" ></path></svg>