<?xml version="1.0" encoding="UTF-8"?>
<svg width="42px" height="42px" viewBox="0 0 42 42" version="1.1" xmlns="http://www.w3.org/2000/svg" xmlns:xlink="http://www.w3.org/1999/xlink">
    <g id="机务管理系统" stroke="none" stroke-width="1" fill-rule="evenodd">
        <g id="面线" transform="translate(-612.000000, -478.000000)" fill-rule="nonzero">
            <path d="M613.047771,480.142282 C616.399994,478.327325 619.991419,477.662505 623.761464,478.159636 C626.902128,478.573775 629.892218,479.636684 632.731215,481.346927 L632.731215,481.346927 L632.891,481.444987 L633.055085,481.329181 C635.197544,479.847148 637.742861,478.873963 640.667828,478.404605 L640.667828,478.404605 L641.158834,478.331043 C644.78929,477.825224 648.503645,478.338381 652.291269,479.857626 L652.291269,479.857626 L652.762983,480.052303 C653.511598,480.361259 654,481.091185 654,481.901048 L654,481.901048 L654,513.901048 C654,515.13927 652.886279,516.079971 651.665498,515.872877 C648.00091,515.251215 644.729774,515.251215 641.846842,515.858148 C639.170192,516.421653 636.77268,517.519605 634.653814,519.144379 L634.653814,519.144379 L634.237372,519.472325 C633.559063,520.00649 632.634392,520.035283 631.933881,519.593625 L631.933881,519.593625 L631.402953,519.265996 C628.764305,517.671692 626.164025,516.576578 623.600248,515.972433 L623.600248,515.972433 L623.087979,515.858148 C620.215737,515.253465 617.32761,515.253465 614.406156,515.859373 C613.16468,516.116855 612,515.168943 612,513.901048 L612,513.901048 L612,481.901048 C612,481.166926 612.402196,480.491808 613.047771,480.142282 Z M623.238536,482.125307 C620.705284,481.791263 618.31474,482.124287 616.027879,483.131991 L616.027879,483.131991 L616,483.143987 L616,511.558987 L616.472936,511.510951 C618.773008,511.298436 621.064679,511.40494 623.342781,511.830824 L623.342781,511.830824 L623.912021,511.943949 C626.723793,512.535901 629.536018,513.61984 632.356831,515.194824 L632.356831,515.194824 L632.874,515.488987 L633.083401,515.3418 C635.324237,513.79187 637.794556,512.697863 640.482346,512.064482 L640.482346,512.064482 L641.0228,511.943949 C643.709392,511.37835 646.626157,511.259277 649.770513,511.579481 L649.770513,511.579481 L650,511.603987 L650,483.264987 L649.845217,483.209965 C647.196547,482.282308 644.637144,481.962491 642.149132,482.237982 L642.149132,482.237982 L641.710808,482.292775 C638.656733,482.718289 636.20703,483.760673 634.313284,485.409453 C633.629392,486.00488 632.630484,486.065696 631.879408,485.557633 L631.879408,485.557633 L631.448689,485.266134 C628.847535,483.547167 626.117029,482.504875 623.238536,482.125307 Z M644.363152,489.522405 C645.188673,490.170195 645.366825,491.337221 644.797947,492.197337 L644.701902,492.330474 L633.899215,506.097063 C633.180224,507.013321 631.844802,507.116529 630.993966,506.354659 L630.875833,506.23993 L623.67852,498.664099 C622.917733,497.863301 622.950168,496.597387 623.750966,495.8366 C624.509616,495.115854 625.685712,495.107031 626.454284,495.788993 L626.578465,495.909046 L632.181,501.805987 L641.555083,489.861155 C642.236967,488.992185 643.494182,488.840522 644.363152,489.522405 Z" id="形状结合"></path>
        </g>
    </g>
</svg>
