<?xml version="1.0" encoding="UTF-8"?>
<svg width="16px" height="16px" viewBox="0 0 16 16" version="1.1" xmlns="http://www.w3.org/2000/svg" xmlns:xlink="http://www.w3.org/1999/xlink">
    <!-- Generator: Sketch 64 (93537) - https://sketch.com -->
    <title></title>
    <desc>Created with Sketch.</desc>
    <g id="资质管理" stroke="none" stroke-width="1" fill="none" fill-rule="evenodd">
        <g transform="translate(-39.000000, -337.000000)" fill="#FFFFFF" fill-rule="nonzero" id="形状结合">
            <path d="M50.4285714,337 C51.6622465,337 52.6676464,337.977362 52.7127092,339.200024 L52.7142857,339.285714 L52.7142857,342.4825 C52.7142857,342.903289 52.3731693,343.244405 51.952381,343.244405 C51.5507193,343.244405 51.2216514,342.933595 51.192566,342.539362 L51.1904762,342.4825 L51.1904762,339.285714 C51.1904762,338.884053 50.8796656,338.554985 50.4854333,338.525899 L50.4285714,338.52381 L41.2857143,338.52381 C40.8840526,338.52381 40.5549847,338.83462 40.5258993,339.228852 L40.5238095,339.285714 L40.5238095,350.714286 C40.5238095,351.115947 40.8346201,351.445015 41.2288524,351.474101 L41.2857143,351.47619 L45.0509916,351.47619 C45.47178,351.47619 45.8128964,351.817307 45.8128964,352.238095 C45.8128964,352.639757 45.5020858,352.968825 45.1078535,352.99791 L45.0509916,353 L41.2857143,353 C40.0520393,353 39.0466393,352.022638 39.0015766,350.799976 L39,350.714286 L39,339.285714 C39,338.052039 39.9773619,337.046639 41.2000235,337.001577 L41.2857143,337 L50.4285714,337 Z M50.2380952,343.47619 C52.8680226,343.47619 55,345.608168 55,348.238095 C55,350.868023 52.8680226,353 50.2380952,353 C47.6081679,353 45.4761905,350.868023 45.4761905,348.238095 C45.4761905,345.608168 47.6081679,343.47619 50.2380952,343.47619 Z M50.2380952,345 C48.4497446,345 47,346.449745 47,348.238095 C47,350.026446 48.4497446,351.47619 50.2380952,351.47619 C52.0264459,351.47619 53.4761905,350.026446 53.4761905,348.238095 C53.4761905,346.449745 52.0264459,345 50.2380952,345 Z M50.2380952,345.761905 C50.6397569,345.761905 50.9688248,346.072715 50.9979102,346.466948 L51,346.52381 L51,348.170667 L51.5592182,348.48129 C51.9095574,348.675876 52.0464906,349.105855 51.8822423,349.464132 L51.8553352,349.517298 C51.6607492,349.867637 51.2307698,350.00457 50.8724927,349.840322 L50.8193272,349.813415 L49.4761905,349.067407 L49.4761905,346.52381 C49.4761905,346.103021 49.8173069,345.761905 50.2380952,345.761905 Z M44.7142857,344.238095 C45.1350741,344.238095 45.4761905,344.579212 45.4761905,345 C45.4761905,345.401662 45.1653799,345.73073 44.7711476,345.759815 L44.7142857,345.761905 L43.1904762,345.761905 C42.7696878,345.761905 42.4285714,345.420788 42.4285714,345 C42.4285714,344.598338 42.739382,344.26927 43.1336143,344.240185 L43.1904762,344.238095 L44.7142857,344.238095 Z M48.5238095,340.619048 C48.9445979,340.619048 49.2857143,340.960164 49.2857143,341.380952 C49.2857143,341.782614 48.9749037,342.111682 48.5806714,342.140767 L48.5238095,342.142857 L43.1904762,342.142857 C42.7696878,342.142857 42.4285714,341.801741 42.4285714,341.380952 C42.4285714,340.979291 42.739382,340.650223 43.1336143,340.621137 L43.1904762,340.619048 L48.5238095,340.619048 Z"></path>
        </g>
    </g>
</svg>
