<?xml version="1.0" encoding="UTF-8"?>
<svg width="42px" height="42px" viewBox="0 0 42 42" version="1.1" xmlns="http://www.w3.org/2000/svg" xmlns:xlink="http://www.w3.org/1999/xlink">
    <title></title>
    <g id="机务管理系统" stroke="none" stroke-width="1" fill-rule="evenodd">
        <g id="面线" transform="translate(-593.000000, -279.000000)"  fill-rule="nonzero">
            <path d="M614,279 C625.59798,279 635,288.40202 635,300 C635,311.59798 625.59798,321 614,321 C602.40202,321 593,311.59798 593,300 C593,288.40202 602.40202,279 614,279 Z M614,283 C604.611159,283 597,290.611159 597,300 C597,309.388841 604.611159,317 614,317 C623.388841,317 631,309.388841 631,300 C631,290.611159 623.388841,283 614,283 Z M614,287.051192 C615.054362,287.051192 615.918165,287.86707 615.994514,288.90193 L616,289.051192 L616,298.970462 L621.777694,301.945095 C622.712987,302.426624 623.107856,303.543422 622.706581,304.49703 L622.640387,304.638747 C622.158858,305.57404 621.042061,305.96891 620.088453,305.567635 L619.946735,305.50144 L613.084521,301.968479 C612.466122,301.650101 612.061056,301.035638 612.006344,300.349753 L612,300.190307 L612,289.051192 C612,287.946622 612.895431,287.051192 614,287.051192 Z" id="形状结合"></path>
        </g>
    </g>
</svg>
