<?xml version="1.0" encoding="UTF-8"?>
<svg width="42px" height="42px" viewBox="0 0 42 42" version="1.1" xmlns="http://www.w3.org/2000/svg" xmlns:xlink="http://www.w3.org/1999/xlink">

    <g id="机务管理系统" stroke="none" stroke-width="1" fill-rule="evenodd">
        <g id="面线" transform="translate(-138.000000, -478.000000)" fill-rule="nonzero">
            <path d="M159,478 C170.59798,478 180,487.40202 180,499 C180,510.59798 170.59798,520 159,520 C147.40202,520 138,510.59798 138,499 C138,487.40202 147.40202,478 159,478 Z M159,482 C149.611159,482 142,489.611159 142,499 C142,508.388841 149.611159,516 159,516 C168.388841,516 176,508.388841 176,499 C176,489.611159 168.388841,482 159,482 Z M154.441795,507.564025 C154.900027,507.564025 155.263388,507.72318 155.523204,508.040445 C155.747236,508.314013 155.872276,508.671663 155.900036,509.110998 L155.905982,509.304279 L155.905982,509.40729 L155.805982,509.50729 L153.901,509.507 L153.904801,509.572987 C153.913855,509.677519 153.931781,509.773561 153.958476,509.861253 L154.005082,509.986547 L154.064765,510.099421 C154.168186,510.266122 154.303805,510.345325 154.481811,510.345325 C154.733201,510.345325 154.89853,510.232633 154.990329,509.992438 L155.025206,509.881647 L155.139553,509.808038 L155.808914,509.926897 L155.885026,510.06057 L155.829388,510.20825 C155.581286,510.799103 155.126435,511.1 154.481811,511.1 C154.016733,511.1 153.640724,510.93591 153.361721,510.609329 C153.085849,510.286413 152.948504,509.868423 152.948504,509.359746 C152.948504,508.825801 153.080146,508.392905 153.345431,508.064712 C153.614656,507.731645 153.982979,507.564025 154.441795,507.564025 Z M159.232821,507.564025 C159.586264,507.564025 159.881256,507.649992 160.114341,507.822777 L160.225709,507.916409 L160.239518,508.045145 L159.948492,508.473038 L159.798484,508.490745 L159.709248,508.409239 C159.599722,508.321422 159.490218,508.279081 159.378335,508.279081 C159.176184,508.279081 159.092724,508.361402 159.092724,508.559429 C159.092724,508.651666 159.179403,508.7382 159.378778,508.815108 C159.822473,508.990828 160.099351,509.152667 160.215864,509.312797 C160.330791,509.470745 160.387793,509.66438 160.387793,509.89065 C160.387793,510.255517 160.269157,510.551676 160.032128,510.772117 C159.797423,510.990397 159.507431,511.1 159.16734,511.1 C158.776869,511.1 158.444173,510.95039 158.174688,510.655271 L158.076604,510.537788 L158.074787,510.418705 L158.38764,509.982889 L158.540386,509.971302 L158.640705,510.074011 C158.826908,510.251901 158.993339,510.337401 159.138238,510.337401 C159.37769,510.337401 159.482053,510.227465 159.482053,509.969889 C159.482053,509.850583 159.426964,509.767149 159.304978,509.706949 L159.018733,509.568809 C158.993604,509.557103 158.970677,509.5466 158.949928,509.537289 C158.472401,509.31117 158.223363,509.025202 158.223363,508.678288 C158.223363,508.353723 158.315188,508.08559 158.49976,507.878745 C158.68651,507.66946 158.933306,507.564025 159.232821,507.564025 Z M163.525465,507.564025 C164.004236,507.564025 164.396377,507.730034 164.69469,508.060577 C164.990991,508.38889 165.138804,508.813045 165.138804,509.328051 C165.138804,509.84278 164.992397,510.267984 164.698899,510.598848 C164.403029,510.932387 164.013061,511.1 163.536378,511.1 C163.059931,511.1 162.667815,510.932584 162.367158,510.599492 C162.068502,510.268618 161.919402,509.844457 161.919402,509.332013 C161.919402,508.819895 162.065836,508.39601 162.359306,508.065177 C162.655208,507.731603 163.046397,507.564025 163.525465,507.564025 Z M150.778496,507.667036 L150.871333,507.729871 L151.566,509.465 L152.183083,507.733477 L152.277284,507.667036 L153.063056,507.667036 L153.155429,507.80534 L151.831258,510.998684 L151.738884,511.06038 L151.316896,511.06038 L151.224448,510.998505 L149.907552,507.805161 L150,507.667036 L150.778496,507.667036 Z M157.734034,507.564025 C157.83683,507.564025 157.934171,507.580987 158.025478,507.614913 L158.114753,507.654493 L158.16794,507.755688 L158.080632,508.452994 L157.930403,508.526586 L157.855035,508.481579 C157.785242,508.446878 157.711358,508.429635 157.632175,508.429635 C157.234892,508.429635 157.021757,508.717656 156.993336,509.337563 L156.990057,509.486529 L156.990057,510.896989 L156.890057,510.996989 L156.184317,510.996989 L156.084317,510.896989 L156.084317,507.767036 L156.184317,507.667036 L156.890057,507.667036 L156.990057,507.767036 L156.99,507.819 L157.076711,507.749813 C157.183052,507.675497 157.304851,507.623476 157.441417,507.593751 L157.58288,507.571457 L157.734034,507.564025 Z M161.539208,507.667036 L161.639208,507.767036 L161.639208,510.896989 L161.539208,510.996989 L160.833468,510.996989 L160.733468,510.896989 L160.733468,507.767036 L160.833468,507.667036 L161.539208,507.667036 Z M167.010509,507.564025 C167.687612,507.564025 168.052707,507.99569 168.095699,508.817723 L168.1,508.987322 L168.1,510.896989 L168,510.996989 L167.301536,510.996989 L167.201536,510.896989 L167.201562,509.243149 L167.198332,509.099073 C167.174011,508.583081 167.020469,508.350396 166.74131,508.350396 C166.429852,508.350396 166.257852,508.6076 166.233233,509.166238 L166.230154,509.312203 L166.230154,510.896989 L166.130154,510.996989 L165.424414,510.996989 L165.324414,510.896989 L165.324414,507.767036 L165.424414,507.667036 L166.130154,507.667036 L166.230154,507.767036 L166.23,507.808 C166.369061,507.698094 166.530464,507.626362 166.715383,507.5907 L166.8585,507.570683 L167.010509,507.564025 Z M163.536378,508.429635 C163.331983,508.429635 163.167968,508.510524 163.036406,508.676919 C162.900825,508.848396 162.832417,509.069502 162.832417,509.343899 C162.832417,509.612563 162.900535,509.827945 163.035546,509.993958 C163.166935,510.155518 163.332465,510.23439 163.540016,510.23439 C163.745312,510.23439 163.905651,510.15097 164.030091,509.978689 C164.160496,509.79815 164.225788,509.583617 164.225788,509.332013 C164.225788,509.080703 164.159469,508.866426 164.026925,508.685983 C163.900014,508.51321 163.739377,508.429635 163.536378,508.429635 Z M154.485449,508.063233 C154.25612,508.063233 154.0662,508.165087 153.924118,508.362307 C153.815493,508.513086 153.749856,508.675461 153.727947,508.848056 L153.719725,508.979398 L153.819725,509.079398 L155.151172,509.079398 L155.251172,508.979398 L155.242927,508.839804 C155.220946,508.658013 155.155034,508.493708 155.04544,508.348605 C154.903092,508.160136 154.71366,508.063233 154.485449,508.063233 Z M161.1827,505.9 C161.323,505.9 161.446446,505.957139 161.547386,506.067073 C161.646768,506.17531 161.697413,506.305092 161.697413,506.451664 C161.697413,506.598236 161.646768,506.728018 161.547386,506.836255 C161.446446,506.946189 161.323,507.003328 161.1827,507.003328 C161.042401,507.003328 160.918954,506.946189 160.818014,506.836255 C160.718632,506.728018 160.667987,506.598236 160.667987,506.451664 C160.667987,506.305092 160.718632,506.17531 160.818014,506.067073 C160.918954,505.957139 161.042401,505.9 161.1827,505.9 Z M158.862634,486.051192 C159.916996,486.051192 160.780799,486.86707 160.857148,487.90193 L160.862634,488.051192 L160.862634,499.190307 L160.85629,499.349753 C160.805787,499.982878 160.456756,500.555146 159.916971,500.889854 L159.778113,500.968479 L152.915899,504.50144 L152.774181,504.567635 C151.870763,504.94779 150.820881,504.6134 150.30344,503.781897 L150.222247,503.638747 L150.156052,503.49703 C149.775897,502.593612 150.110287,501.54373 150.94179,501.026289 L151.08494,500.945095 L156.862634,497.970462 L156.862634,488.051192 L156.868119,487.90193 C156.944469,486.86707 157.808272,486.051192 158.862634,486.051192 Z" id="历史版本"></path>
        </g>
    </g>
</svg>
