<?xml version="1.0" encoding="UTF-8"?>
<svg width="18px" height="18px" viewBox="0 0 18 18" version="1.1" xmlns="http://www.w3.org/2000/svg" xmlns:xlink="http://www.w3.org/1999/xlink">
    <!-- Generator: Sketch 64 (93537) - https://sketch.com -->
    <desc>Created with Sketch.</desc>
    <g id="资质管理" stroke="none" stroke-width="1" fill-rule="evenodd">
        <g transform="translate(-1554.000000, -125.000000)" fill-rule="nonzero" id="编组-4">
            <g transform="translate(1298.000000, 118.000000)">
                <g id="编组-14" transform="translate(246.000000, 0.000000)">
                    <path d="M19,7 C23.0183365,7 25.9287531,9.71431585 27.7312499,15.1429476 L28,15.9998421 L27.7311066,16.8574838 C25.9285989,22.2858279 23.01823,25 19,25 C14.98177,25 12.0714011,22.2858279 10.2688934,16.8574838 L10,16.0001579 L10.2687501,15.1429476 C12.0712469,9.71431585 14.9816635,7 19,7 Z M19,8.71428571 C15.9024861,8.71428571 13.6010756,10.8187629 12.012927,15.4638896 L11.9433242,15.6704714 L11.8338234,15.9994401 L11.943458,16.3299318 C13.510648,21.0496044 15.7898315,23.2223605 18.8638649,23.2843476 L19,23.2857143 C22.0974293,23.2857143 24.3987902,21.1813592 25.986939,16.5365016 L26.1657366,15.9994401 L26.0566758,15.6704714 C24.4894877,10.9505254 22.2102558,8.77764318 19.1361388,8.71565246 L19,8.71428571 Z M19,13 C20.7010125,13 22.0799556,14.3431458 22.0799556,16 C22.0799556,17.6568542 20.7010125,19 19,19 C17.2989875,19 15.9200444,17.6568542 15.9200444,16 C15.9200444,14.3431458 17.2989875,13 19,13 Z M19,14.7142857 C18.2709947,14.7142857 17.680019,15.2899196 17.680019,16 C17.680019,16.7100804 18.2709947,17.2857143 19,17.2857143 C19.7290053,17.2857143 20.319981,16.7100804 20.319981,16 C20.319981,15.2899196 19.7290053,14.7142857 19,14.7142857 Z" id="形状结合"></path>
                </g>
            </g>
        </g>
    </g>
</svg>
