<?xml version="1.0" encoding="UTF-8"?>
<svg width="16px" height="16px" viewBox="0 0 16 16" version="1.1" xmlns="http://www.w3.org/2000/svg" xmlns:xlink="http://www.w3.org/1999/xlink">
    <!-- Generator: Sketch 64 (93537) - https://sketch.com -->
    <title>形状结合</title>
    <desc>Created with Sketch.</desc>
    <g id="资质管理" stroke="none" stroke-width="1" fill="none" fill-rule="evenodd">
        <g transform="translate(-39.000000, -425.000000)" fill="#FFFFFF" fill-rule="nonzero" id="形状结合">
            <path d="M47.8347909,425 C48.2590796,425 48.6030336,425.339345 48.6030336,425.757949 L48.6030336,425.757949 L48.6030295,428.147409 C48.711722,428.03726 48.8550363,427.958399 49.0198194,427.929343 L49.0198194,427.929343 L52.0461048,427.395728 C52.4639476,427.322051 52.8616028,427.596513 52.9342925,428.008757 L52.9342925,428.008757 L54.9743468,439.57848 C55.0470365,439.990724 54.7672347,440.384641 54.3493918,440.458318 L54.3493918,440.458318 L51.3231064,440.991933 C50.9052636,441.06561 50.5076084,440.791148 50.4349187,440.378904 L50.4349187,440.378904 L48.603,429.994 L48.6030336,440.158973 C48.6030336,440.542693 48.3140167,440.859814 47.9390369,440.910003 L47.8347909,440.916922 L44.7618201,440.916922 C44.3375314,440.916922 43.9935775,440.577577 43.9935775,440.158973 L43.9935775,440.158973 L43.9935775,425.757949 C43.9935775,425.339345 44.3375314,425 44.7618201,425 L44.7618201,425 Z M42.8412134,428.031795 C43.2655021,428.031795 43.6094561,428.37114 43.6094561,428.789743 L43.6094561,428.789743 L43.6094561,440.158973 C43.6094561,440.577577 43.2655021,440.916922 42.8412134,440.916922 L42.8412134,440.916922 L39.7682427,440.916922 C39.343954,440.916922 39,440.577577 39,440.158973 L39,440.158973 L39,428.789743 C39,428.37114 39.343954,428.031795 39.7682427,428.031795 L39.7682427,428.031795 Z M42.072,432.2 L40.536,432.2 L40.5364854,439.401025 L42.0729707,439.401025 L42.072,432.2 Z M47.066,429.168 L45.53,429.168 L45.5300628,439.401025 L47.0665482,439.401025 L47.066,429.168 Z M52.012,431.631 L50.499,431.898 L51.8162459,439.3654 L53.3293886,439.098593 L52.012,431.631 Z M42.0729707,429.547692 L40.5364854,429.547692 L40.536,430.684 L42.072,430.684 L42.0729707,429.547692 Z M51.5525672,429.021737 L50.0394245,429.288545 L50.236,430.406 L51.749,430.138 L51.5525672,429.021737 Z M47.0665482,426.515897 L45.5300628,426.515897 L45.53,427.652 L47.066,427.652 L47.0665482,426.515897 Z"></path>
        </g>
    </g>
</svg>