<?xml version="1.0" encoding="UTF-8"?>
<svg width="16px" height="17px" viewBox="0 0 16 17" version="1.1" xmlns="http://www.w3.org/2000/svg" xmlns:xlink="http://www.w3.org/1999/xlink">
    <!-- Generator: Sketch 64 (93537) - https://sketch.com -->
    <desc>Created with Sketch.</desc>
    <g id="资质管理" stroke="none" stroke-width="1" fill="none" fill-rule="evenodd">
        <g transform="translate(-1826.000000, -262.000000)" fill="#3D568E" fill-rule="nonzero" id="编组-6">
            <g transform="translate(190.000000, 170.000000)">
                <g id="ic/考试" transform="translate(1636.000000, 92.250000)">
                    <path d="M6.48686152,1.29514775 C7.04875721,0.148452058 8.43385531,-0.325599341 9.58056471,0.236324317 C9.80931339,0.348418363 10.0179673,0.497542076 10.1980942,0.67766893 L10.1980942,0.67766893 L15.3227229,5.8022977 C16.2256928,6.70526751 16.2257106,8.169253 15.3227628,9.07220079 C15.1426404,9.25232325 14.9339901,9.40144187 14.7052441,9.51353034 L14.7052441,9.51353034 L13.6238864,10.0434096 C13.0020382,10.3481232 12.2926596,10.3522849 11.6832795,10.0871003 L10.1487141,14.9919438 C10.0526743,15.2989856 9.77602044,15.5140695 9.4547765,15.5314439 L9.4547765,15.5314439 L0.812504875,15.9988581 C0.354606394,16.0236233 -0.0235013751,15.6455156 0.00126390184,15.1876171 L0.00126390184,15.1876171 L0.468678097,6.54534546 C0.486052461,6.22410152 0.701136315,5.94744768 1.0081782,5.85140785 L1.0081782,5.85140785 L5.91329152,4.31711233 C5.64810696,3.70773226 5.65226865,2.99835366 5.95698229,2.37650546 L5.95698229,2.37650546 Z M6.97088385,5.60109279 L1.97885084,7.16295563 L1.648,13.261 L3.2592326,11.649032 C2.90492382,10.8864761 3.00357115,9.96849599 3.56626075,9.30964123 L3.682312,9.18412068 C4.5361861,8.33024658 5.92714349,8.34864623 6.78931264,9.21081539 C7.65148179,10.0729845 7.66988145,11.4639419 6.81600735,12.317816 C6.15179209,12.9820313 5.16258558,13.1184302 4.35009452,12.7404298 L2.738,14.351 L8.83728372,14.0208435 L10.3988741,9.02908301 L6.97088385,5.60109279 Z M5.69935824,10.3007698 C5.43281512,10.0342267 5.01765969,10.028735 4.77229299,10.2741017 C4.5269263,10.5194684 4.532418,10.9346238 4.79896112,11.2011669 C5.06550424,11.46771 5.48065967,11.4732017 5.72602636,11.227835 C5.97139305,10.9824683 5.96590136,10.5673129 5.69935824,10.3007698 Z M8.90229661,1.62050846 C8.52006014,1.43320058 8.05836078,1.59121771 7.87106221,1.97344961 L7.87106221,1.97344961 L7.34118298,3.05480732 C7.19620909,3.35066461 7.25533219,3.70596152 7.48830612,3.93893545 L7.48830612,3.93893545 L12.0614564,8.51208574 C12.2944303,8.74505967 12.6497273,8.80418278 12.9455845,8.65920888 L12.9455845,8.65920888 L14.0269423,8.12932965 C14.1031909,8.09196683 14.172741,8.04226062 14.2327818,7.9822198 C14.5337644,7.6812372 14.5337585,7.19324204 14.2327685,6.8922521 L14.2327685,6.8922521 L9.10813976,1.76762334 C9.04809748,1.70758105 8.97854617,1.65787315 8.90229661,1.62050846 Z" id="形状结合备份-19"></path>
                </g>
            </g>
        </g>
    </g>
</svg>
