<?xml version="1.0" encoding="UTF-8"?>
<svg width="15px" height="16px" viewBox="0 0 15 16" version="1.1" xmlns="http://www.w3.org/2000/svg" xmlns:xlink="http://www.w3.org/1999/xlink">
    <g id="资质管理" stroke="none" stroke-width="1" fill="none" fill-rule="evenodd">
        <g transform="translate(-1854.000000, -17.000000)" fill="#FFFFFF" fill-rule="nonzero" id="title">
            <g>
                <g id="编组-2" transform="translate(1854.000000, 15.000000)">
                    <path d="M7.49968215,10.3514577 C7.04481131,10.3514577 6.66473058,9.98306859 6.66473058,9.53810857 L6.66473058,2.81334914 C6.66473058,2.36805487 7.04464449,2 7.49968215,2 C7.95471981,2 8.33463371,2.36805487 8.33463371,2.81334914 L8.33368953,9.45940109 C8.40831447,9.96790707 8.03597636,10.3514577 7.49968215,10.3514577 Z M14.9989552,10.7896684 C15.0682213,14.7401192 11.6844736,18 7.49948446,18 C3.37218719,18 0,14.7304611 0,10.7249675 C0,7.78140818 1.86629838,5.1429655 4.7115994,3.97806531 L4.98341943,3.97806531 C5.43862539,3.97806531 5.81787678,4.34580688 5.81787678,4.79091995 C5.81787678,5.15613439 5.5937619,5.45275404 5.21979486,5.59795624 C3.10268087,6.45850002 1.66990314,8.49597101 1.66990314,10.7249675 C1.66990314,13.8275313 4.26884718,16.3075327 7.49948446,16.3075327 C10.7063617,16.3075327 13.32956,13.7845427 13.32956,10.7249675 C13.32956,8.45328426 11.9207924,6.46825942 9.77452612,5.59566744 C9.42997051,5.4286084 9.18158636,5.12717995 9.18158636,4.79091995 C9.18158636,4.3458911 9.56075219,3.97806531 10.0155495,3.97806531 C10.079533,3.97806531 10.1180147,3.97975542 10.1653132,3.98737569 C10.2324937,3.99819914 10.2891342,4.01899795 10.3332252,4.05523083 C13.1372949,5.14906753 14.9989689,7.78643834 14.9989552,10.7896684 Z" id="ic_esc"></path>
                </g>
            </g>
        </g>
    </g>
</svg>
