<?xml version="1.0" encoding="UTF-8"?>
<svg width="109px" height="34px" viewBox="0 0 109 34" version="1.1" xmlns="http://www.w3.org/2000/svg" xmlns:xlink="http://www.w3.org/1999/xlink">
    <defs>
        <filter x="0.0%" y="0.0%" width="100.0%" height="100.0%" filterUnits="objectBoundingBox" id="filter-1">
            <feOffset dx="0" dy="0" in="SourceAlpha" result="shadowOffsetOuter1"></feOffset>
            <feColorMatrix values="0 0 0 0 0.0357781053   0 0 0 0 0.0692694054   0 0 0 0 0.246150362  0 0 0 0.646361451 0" type="matrix" in="shadowOffsetOuter1" result="shadowMatrixOuter1"></feColorMatrix>
            <feMerge>
                <feMergeNode in="shadowMatrixOuter1"></feMergeNode>
                <feMergeNode in="SourceGraphic"></feMergeNode>
            </feMerge>
        </filter>
        <path d="M0.688582227,33.1551325 C13.5347537,20.5135883 24.0628823,13.0830623 32.5732238,10.0639388 C40.1563483,7.37384657 40.0909489,10.237465 34.177106,18.0929413 C37.4270164,16.9279613 40.7057026,16.8489008 44.0579267,15.7998956 C53.3472468,3.86728009 52.5479217,-2.59649854 41.764881,1.22921665 C30.2859915,5.30170529 10.657474,19.4012184 0.568828796,32.9211483 C0.448494038,33.0821759 0.317986052,33.240297 0.18544342,33.3963834 C0.348505737,33.3179042 0.516509336,33.2373903 0.688582227,33.1551325" id="path-2"></path>
        <path d="M41.8445228,0.67056108 C28.1211285,2.01284589 16.7204274,4.39018403 9.9287802,7.20671496 C8.75798695,8.41209719 1.37396715,15.1831073 0.15695838,16.5285894 C9.67299618,12.761007 24.9970754,6.73874646 42.0299663,4.48668436 C61.7320216,1.88088459 79.8639118,4.48784702 89.4159919,5.95947717 C81.0931285,2.33257593 61.2896315,-1.23154196 41.8445228,0.67056108" id="path-4"></path>
    </defs>
    <g id="资质管理" stroke="none" stroke-width="1" fill="none" fill-rule="evenodd">
        <g transform="translate(-57.000000, -7.000000)" id="title">
            <g>
                <g id="logo" filter="url(#filter-1)" transform="translate(57.000000, 7.000000)">
                    <path d="M46.1643663,10.3996553 C40.2418034,7.60027357 40.0964715,7.50144792 32.8156373,6.36524364 C25.2243744,5.18049854 17.9304603,4.94302632 13.0949795,5.74235141 C4.01609989,7.24362925 6.17776558,12.3389633 17.7142065,17.3322745 L22.4738241,14.1675285 C17.8147762,11.4954574 17.4354601,9.35239415 22.7967514,8.46616063 C25.5388724,8.01272531 28.7495433,7.91942227 32.4578304,8.21328324 C38.3565588,8.68037975 38.1060067,8.21880585 46.6480306,10.754265 C46.7174992,10.7757741 46.77476,10.8062938 46.837834,10.8321629 L47.1046632,10.787982 C46.7965597,10.658346 46.4678191,10.5429525 46.1643663,10.3996553" id="Fill-65" fill="#FFFFFF"></path>
                    <g id="分组" transform="translate(-0.000000, 0.000000)">
                        <mask id="mask-3" fill="white">
                            <use xlink:href="#path-2"></use>
                        </mask>
                        <g id="Clip-67"></g>
                        <path d="M0.688582227,33.1551325 C13.5347537,20.5135883 24.0628823,13.0830623 32.5732238,10.0639388 C40.1563483,7.37384657 40.0909489,10.237465 34.177106,18.0929413 C37.4270164,16.9279613 40.7057026,16.8489008 44.0579267,15.7998956 C53.3472468,3.86728009 52.5479217,-2.59649854 41.764881,1.22921665 C30.2859915,5.30170529 10.657474,19.4012184 0.568828796,32.9211483 C0.448494038,33.0821759 0.317986052,33.240297 0.18544342,33.3963834 C0.348505737,33.3179042 0.516509336,33.2373903 0.688582227,33.1551325" id="Fill-66" fill="#FFFFFF" mask="url(#mask-3)"></path>
                    </g>
                    <g id="分组" transform="translate(5.813273, 12.789201)">
                        <mask id="mask-5" fill="white">
                            <use xlink:href="#path-4"></use>
                        </mask>
                        <g id="Clip-69"></g>
                        <path d="M41.8445228,0.67056108 C28.1211285,2.01284589 16.7204274,4.39018403 9.9287802,7.20671496 C8.75798695,8.41209719 1.37396715,15.1831073 0.15695838,16.5285894 C9.67299618,12.761007 24.9970754,6.73874646 42.0299663,4.48668436 C61.7320216,1.88088459 79.8639118,4.48784702 89.4159919,5.95947717 C81.0931285,2.33257593 61.2896315,-1.23154196 41.8445228,0.67056108" id="Fill-68" fill="#FFFFFF" mask="url(#mask-5)"></path>
                    </g>
                    <path d="M90.1445098,20.7986275 C90.4747059,20.7986275 90.7178431,21.1068627 90.6409804,21.4276471 L90.6409804,21.4276471 L88.9009804,28.6801961 L89.964902,28.6801961 L89.6801961,29.8656863 L87.3468627,29.8656863 C86.8527451,29.8656863 86.4888235,29.4041176 86.6041176,28.9237255 L86.6041176,28.9237255 L88.2684314,21.9841176 L86.2515686,21.9841176 L84.6433333,28.6896078 C84.4778431,29.3794118 83.8609804,29.8656863 83.1515686,29.8656863 L83.1515686,29.8656863 L82.2805882,29.8656863 L84.4554902,20.7986275 Z M81.1021176,20.3177255 L80.8821176,21.2369412 L83.4550588,21.2369412 L83.3119216,21.8334118 C83.2287843,22.178902 82.9197647,22.4224314 82.5644706,22.4224314 L82.5644706,22.4224314 L80.5974118,22.4224314 L79.0009412,29.078902 C78.8903529,29.5400784 78.4774118,29.8655686 78.0025098,29.8655686 L78.0025098,29.8655686 L76.5734902,29.8655686 L78.3585882,22.4224314 L75.5852549,22.4224314 L75.8695686,21.2369412 L78.6432941,21.2369412 L78.8636863,20.3177255 L81.1021176,20.3177255 Z M77.2607059,23.2737647 L75.9152157,28.8855294 C75.7771765,29.4604314 75.2630588,29.8659216 74.6716863,29.8659216 L74.6716863,29.8659216 L74.001098,29.8659216 L75.5818824,23.2737647 L77.2607059,23.2737647 Z M82.9653333,23.2737647 L81.384549,29.8659216 L80.6755294,29.8659216 C80.1810196,29.8659216 79.8163137,29.4035686 79.9316078,28.9223922 L79.9316078,28.9223922 L81.2865098,23.2737647 L82.9653333,23.2737647 Z M106.926667,20.7987451 C107.367059,20.7987451 107.60549,21.3140392 107.32,21.6493333 L107.32,21.6493333 L106.239608,22.9195294 L107.587059,22.9195294 C107.918431,22.9195294 108.162353,23.2289412 108.08549,23.550902 L108.08549,23.550902 L106.852549,28.6889412 C106.687059,29.3795294 106.069804,29.8658039 105.36,29.8658039 L105.36,29.8658039 L104.331765,29.8658039 L105.713725,24.1050196 L98.2368627,24.1050196 L98.5215686,22.9195294 L104.147843,22.9195294 L104.943137,21.9842353 L98.7454902,21.9842353 L99.0301961,20.7987451 Z M96.9537255,20.3177255 L96.5807843,21.8726275 L98.3141176,21.8726275 L98.1705882,22.469098 C98.0878431,22.8145882 97.7788235,23.0585098 97.4235294,23.0585098 L97.4235294,23.0585098 L96.2960784,23.0585098 L94.9478431,28.6800784 L96.6807843,28.6800784 L96.5376471,29.276549 C96.454902,29.6220392 96.1458824,29.8655686 95.7905882,29.8655686 L95.7905882,29.8655686 L90.7917647,29.8655686 L91.0760784,28.6800784 L92.7094118,28.6800784 L94.0576471,23.0585098 L92.4247059,23.0585098 L92.7094118,21.8726275 L94.3419608,21.8726275 L94.714902,20.3177255 L96.9537255,20.3177255 Z M101.10949,24.7493333 L99.3585098,29.0677647 C99.1628235,29.5501176 98.6941961,29.8658039 98.1738039,29.8658039 L98.1738039,29.8658039 L96.9632157,29.8658039 L99.0381176,24.7493333 L101.10949,24.7493333 Z M104.45549,24.7493333 L102.70451,29.0677647 C102.508824,29.5501176 102.040196,29.8658039 101.519804,29.8658039 L101.519804,29.8658039 L100.309216,29.8658039 L102.383725,24.7493333 L104.45549,24.7493333 Z M51.5632157,25.4162745 L55.5596863,29.8656863 L53.5334118,29.8656863 C53.171451,29.8656863 52.8259608,29.7119608 52.584,29.442549 L52.584,29.442549 L48.9679216,25.4162745 L51.5632157,25.4162745 Z M57.4480392,20.6096471 L57.2852941,21.2888627 C57.2139216,21.5861176 56.9484314,21.7955294 56.642549,21.7955294 L56.642549,21.7955294 L50.2468627,21.7955294 L48.6335294,23.5457255 L56.7441176,23.5457255 L56.5809804,24.224549 C56.5096078,24.5218039 56.2441176,24.7312157 55.9382353,24.7312157 L55.9382353,24.7312157 L47.5405882,24.7312157 L43.4166667,29.2053333 C43.0288235,29.6265098 42.4821569,29.8657255 41.91,29.8657255 L41.91,29.8657255 L39.9966667,29.8657255 L44.7288235,24.7312157 L40.9927451,24.7312157 L41.277451,23.5457255 L45.822549,23.5457255 L47.4354902,21.7955294 L41.6970588,21.7955294 L41.9817647,20.6096471 L57.4480392,20.6096471 Z M68.1816471,20.072 L68.0530196,20.6096471 L74.5181176,20.6096471 L74.3553725,21.2872941 C74.284,21.5853333 74.0169412,21.7955294 73.7106667,21.7955294 L73.7106667,21.7955294 L61.2181176,21.7955294 L59.564,28.6912157 C59.398902,29.3802353 58.7828235,29.8657255 58.0741961,29.8657255 L58.0741961,29.8657255 L57.169098,29.8657255 L59.3894902,20.6096471 L65.9404706,20.6096471 L66.069098,20.072 L68.1816471,20.072 Z M67.0077255,24.8912157 L67.6171373,29.8657255 L66.7261569,29.8657255 C66.199098,29.8657255 65.7543922,29.4723922 65.6904706,28.9492549 L65.6904706,28.9492549 L65.1928235,24.8912157 L67.0077255,24.8912157 Z M73.2887451,22.4196863 L73.1256078,23.098902 L73.920902,23.098902 L73.7581569,23.7761569 C73.6867843,24.0745882 73.4205098,24.2847843 73.113451,24.2847843 L73.113451,24.2847843 L72.8412941,24.2847843 L71.8314902,28.4941961 C71.638549,29.298902 70.9193333,29.8655686 70.0918824,29.8655686 L70.0918824,29.8655686 L68.1146275,29.8655686 L68.3993333,28.6800784 L69.6742353,28.6800784 L70.7283529,24.2847843 L65.7165882,24.2847843 L66.0012941,23.098902 L71.0130588,23.098902 L71.1758039,22.4196863 L73.2887451,22.4196863 Z M65.6836471,22.4197255 L63.4973725,24.5742353 L64.4432549,24.5742353 L63.4087451,28.8863922 C63.271098,29.460902 62.7573725,29.8656078 62.1667843,29.8656078 L62.1667843,29.8656078 L61.0612941,29.8656078 L62.1773725,25.213451 L60.5977647,25.213451 L63.4326667,22.4197255 L65.6836471,22.4197255 Z" id="形状结合" fill="#FFFFFF"></path>
                </g>
            </g>
        </g>
    </g>
</svg>
