<?xml version="1.0" encoding="UTF-8"?>
<svg width="16px" height="16px" viewBox="0 0 16 16" version="1.1" xmlns="http://www.w3.org/2000/svg" xmlns:xlink="http://www.w3.org/1999/xlink">
    <title>消息</title>
    <g id="资质管理" stroke="none" stroke-width="1" fill="none" fill-rule="evenodd">
        <g transform="translate(-1779.000000, -17.000000)" fill="#FFFFFF" fill-rule="nonzero" id="title">
            <g>
                <g id="编组-8" transform="translate(1779.000000, 9.000000)">
                    <g id="ic_ring" transform="translate(0.000000, 8.000000)">
                        <path d="M6.78193092,1.26532967 C6.78193092,0.566868433 7.32600235,0 8.00024725,0 C8.67342052,0 9.21806908,0.567298256 9.21806908,1.26532967 C9.21806908,1.28269164 9.21638493,1.2976855 9.21283387,1.31461415 C11.8496916,1.9076256 13.7379527,4.33642013 13.738697,7.15217033 L13.738697,11.1849725 L15.3173312,11.1765147 C15.6923442,11.1745055 15.997981,11.4768848 15.9999903,11.8518977 C15.9999968,11.8531104 16,11.854323 16,11.8555357 C16,12.2325687 15.6943544,12.5382143 15.3173214,12.5382143 L0.682678571,12.5382143 C0.305645607,12.5382143 -2.95142895e-15,12.2325687 -2.99760217e-15,11.8555357 C-3.04352856e-15,11.4805182 0.304011724,11.1765065 0.67902919,11.1765065 C0.680242388,11.1765065 0.681455584,11.1765098 0.682668765,11.1765163 L2.26031398,11.1849725 L2.26031398,11.1849725 L2.26031399,7.1521316 C2.2615548,4.33590543 4.15010334,1.90682448 6.78706103,1.31450917 C6.78358142,1.29758234 6.78193092,1.28262212 6.78193092,1.26532967 Z M12.4324686,7.04906593 C12.4324686,4.50060616 10.447487,2.43620879 8.00024725,2.43620879 C5.55255413,2.43620879 3.56654239,4.50081941 3.56654239,7.04906593 L3.56654239,11.1728571 L12.4324686,11.1728571 L12.4324686,7.04906593 Z M9.60719978,13.0862363 L9.69511186,12.9983242 L10.8255161,12.9983242 L10.9134282,13.0862363 C10.9134282,14.6951214 9.60874805,16 8.00024725,16 C6.3913308,16 5.08657181,14.6952002 5.08657181,13.0862363 L5.1744839,12.9983242 L6.30488814,12.9983242 L6.39280022,13.0862363 C6.39280022,13.9742053 7.11216373,14.6937363 8.00024725,14.6937363 C8.88790876,14.6937363 9.60719978,13.9741328 9.60719978,13.0862363 Z" id="Clip-6"></path>
                    </g>
                </g>
            </g>
        </g>
    </g>
</svg>
