<?xml version="1.0" encoding="UTF-8"?>
<svg width="42px" height="42px" viewBox="0 0 42 42" version="1.1" xmlns="http://www.w3.org/2000/svg" xmlns:xlink="http://www.w3.org/1999/xlink">

    <g id="机务管理系统" stroke="none" stroke-width="1"  fill-rule="evenodd">
        <g id="面线" transform="translate(-551.000000, -378.000000)" fill-rule="nonzero">
            <path d="M572,378 C583.59798,378 593,387.40202 593,399 C593,410.59798 583.59798,420 572,420 C560.40202,420 551,410.59798 551,399 C551,387.40202 560.40202,378 572,378 Z M572,382 C562.611159,382 555,389.611159 555,399 C555,408.388841 562.611159,416 572,416 C581.388841,416 589,408.388841 589,399 C589,389.611159 581.388841,382 572,382 Z M567.286999,391.468954 L567.414214,391.585786 L572.5,396.671 L577.585786,391.585786 C578.366835,390.804738 579.633165,390.804738 580.414214,391.585786 C581.154154,392.325727 581.193099,393.501211 580.531046,394.286999 L580.414214,394.414214 L575.329,399.5 L580.414214,404.585786 C581.195262,405.366835 581.195262,406.633165 580.414214,407.414214 C579.674273,408.154154 578.498789,408.193099 577.713001,407.531046 L577.585786,407.414214 L572.5,402.329 L567.414214,407.414214 C566.633165,408.195262 565.366835,408.195262 564.585786,407.414214 C563.845846,406.674273 563.806901,405.498789 564.468954,404.713001 L564.585786,404.585786 L569.671,399.5 L564.585786,394.414214 C563.804738,393.633165 563.804738,392.366835 564.585786,391.585786 C565.325727,390.845846 566.501211,390.806901 567.286999,391.468954 Z" id="不通过"></path>
        </g>
    </g>
</svg>
