<?xml version="1.0" encoding="UTF-8"?>
<svg width="42px" height="42px" viewBox="0 0 42 42" version="1.1" xmlns="http://www.w3.org/2000/svg" xmlns:xlink="http://www.w3.org/1999/xlink">

    <g id="机务管理系统" stroke="none" stroke-width="1"  fill-rule="evenodd">
        <g id="面线" transform="translate(-488.000000, -378.000000)" fill-rule="nonzero">
            <path d="M509,378 C520.59798,378 530,387.40202 530,399 C530,410.59798 520.59798,420 509,420 C497.40202,420 488,410.59798 488,399 C488,387.40202 497.40202,378 509,378 Z M509,382 C499.611159,382 492,389.611159 492,399 C492,408.388841 499.611159,416 509,416 C518.388841,416 526,408.388841 526,399 C526,389.611159 518.388841,382 509,382 Z M520.100311,393.292942 C520.835835,394.037274 520.867782,395.212969 520.201064,395.994802 L520.083476,396.121319 L508.51193,407.555929 C507.770948,408.288142 506.601639,408.323552 505.819218,407.664415 L505.692536,407.548128 L499.180828,401.041859 C498.399453,400.261136 498.398924,398.994807 499.179646,398.213432 C499.919277,397.473182 501.094745,397.433746 501.880809,398.09547 L502.008073,398.21225 L507.113,403.313 L517.271934,393.276107 C518.057618,392.499721 519.323925,392.507258 520.100311,393.292942 Z" id="通过"></path>
        </g>
    </g>
</svg>
