<?xml version="1.0" encoding="UTF-8"?>
<svg width="42px" height="43px" viewBox="0 0 42 43" version="1.1" xmlns="http://www.w3.org/2000/svg" xmlns:xlink="http://www.w3.org/1999/xlink">
    <title>档案</title>
    <g id="机务管理系统" stroke="none" stroke-width="1" fill-rule="evenodd">
        <g id="面线" transform="translate(-425.000000, -309.000000)" fill-rule="nonzero">
            <path d="M450,309.455844 C451.104569,309.455844 452,310.351275 452,311.455844 L457,311.455844 C460.238397,311.455844 462.877572,314.021419 462.995862,317.230906 L463,317.455844 L463,326.455844 C463,327.560414 462.104569,328.455844 461,328.455844 C459.945638,328.455844 459.081835,327.639966 459.005486,326.605106 L459,326.455844 L459,317.455844 C459,316.401482 458.184122,315.537679 457.149262,315.46133 L457,315.455844 L431,315.455844 C429.945638,315.455844 429.081835,316.271722 429.005486,317.306582 L429,317.455844 L429,345.455844 C429,346.510206 429.815878,347.374009 430.850738,347.450358 L431,347.455844 L442,347.455844 C443.104569,347.455844 444,348.351275 444,349.455844 C444,350.510206 443.184122,351.374009 442.149262,351.450358 L442,351.455844 L431,351.455844 C427.761603,351.455844 425.122428,348.890269 425.004138,345.680782 L425,345.455844 L425,317.455844 C425,314.217447 427.565575,311.578272 430.775062,311.459983 L431,311.455844 L436,311.455844 L436,311.455844 C436,310.351275 436.895431,309.455844 438,309.455844 L450,309.455844 Z M466.1094,329.791744 C466.982505,330.373813 467.250294,331.523586 466.749572,332.425085 L466.664101,332.565245 L454.664101,350.565245 C454.022047,351.528325 452.708996,351.73926 451.80069,351.056534 L451.67944,350.957883 L444.67944,344.803634 C443.849887,344.074309 443.768636,342.810588 444.497961,341.981035 C445.188901,341.195143 446.359464,341.080857 447.186111,341.691127 L447.32056,341.799556 L452.603,346.444 L463.335899,330.346444 C463.948604,329.427386 465.190343,329.179039 466.1094,329.791744 Z M452,329.955844 C453.104569,329.955844 454,330.851275 454,331.955844 C454,333.010206 453.184122,333.874009 452.149262,333.950358 L452,333.955844 L438,333.955844 C436.895431,333.955844 436,333.060414 436,331.955844 C436,330.901482 436.815878,330.037679 437.850738,329.96133 L438,329.955844 L452,329.955844 Z M452,321.955844 C453.104569,321.955844 454,322.851275 454,323.955844 C454,325.010206 453.184122,325.874009 452.149262,325.950358 L452,325.955844 L438,325.955844 C436.895431,325.955844 436,325.060414 436,323.955844 C436,322.901482 436.815878,322.037679 437.850738,321.96133 L438,321.955844 L452,321.955844 Z" id="形状结合"></path>
        </g>
    </g>
</svg>
