<?xml version="1.0" encoding="UTF-8"?>
<svg width="42px" height="43px" viewBox="0 0 42 43" version="1.1" xmlns="http://www.w3.org/2000/svg" xmlns:xlink="http://www.w3.org/1999/xlink">

    <g id="机务管理系统" stroke="none" stroke-width="1"  fill-rule="evenodd">
        <g id="面线" transform="translate(-732.000000, -377.000000)"  fill-rule="nonzero">
            <path d="M748.023321,380.876924 C749.698343,377.975702 753.387516,376.969773 756.26332,378.630119 C759.139124,380.290465 760.112551,383.988347 758.437529,386.88957 L758.437529,386.88957 L743.149067,413.369963 C742.987824,413.649244 742.762703,413.886243 742.492494,414.06118 L742.492494,414.06118 L735.101218,418.846385 C733.724697,419.737562 731.932541,418.702861 732.016063,417.06517 L732.016063,417.06517 L732.464534,408.271535 C732.480929,407.950058 732.573616,407.636598 732.734859,407.357317 L732.734859,407.357317 Z M771.97807,411.862924 C773.094751,411.862924 774,412.760241 774,413.867139 C774,414.923723 773.175176,415.789347 772.128969,415.865857 L771.97807,415.871354 L753.780699,415.871354 C752.664018,415.871354 751.758769,414.974037 751.758769,413.867139 C751.758769,412.810555 752.583593,411.944931 753.6298,411.868421 L753.780699,411.862924 L771.97807,411.862924 Z M737.973,406.301 L736.451052,408.937543 L736.22613,413.333546 L739.923466,410.940007 L741.444,408.305 L737.973,406.301 Z M754.24139,382.132205 C753.282789,381.578756 752.053064,381.914065 751.494724,382.88114 L751.494724,382.88114 L739.977,402.829 L743.449,404.833 L754.966126,384.885355 C755.471037,384.010824 755.254008,382.919131 754.498948,382.30892 L754.368154,382.211796 Z M771.97807,397.833417 C773.094751,397.833417 774,398.730735 774,399.837632 C774,400.894216 773.175176,401.75984 772.128969,401.83635 L771.97807,401.841847 L759.84649,401.841847 C758.729808,401.841847 757.82456,400.94453 757.82456,399.837632 C757.82456,398.781048 758.649383,397.915424 759.695591,397.838914 L759.84649,397.833417 L771.97807,397.833417 Z M771.97807,382.801803 C773.094751,382.801803 774,383.69912 774,384.806018 C774,385.862602 773.175176,386.728226 772.128969,386.804736 L771.97807,386.810233 L765.91228,386.810233 C764.795599,386.810233 763.89035,385.912915 763.89035,384.806018 C763.89035,383.749434 764.715174,382.88381 765.761381,382.8073 L765.91228,382.801803 L771.97807,382.801803 Z" id="发布"></path>
        </g>
    </g>
</svg>
