<?xml version="1.0" encoding="UTF-8"?>
<svg width="43px" height="42px" viewBox="0 0 43 42" version="1.1" xmlns="http://www.w3.org/2000/svg" xmlns:xlink="http://www.w3.org/1999/xlink">
    <g id="机务管理系统" stroke="none" stroke-width="1" fill="none" fill-rule="evenodd">
        <g id="画板" transform="translate(-251.000000, -418.000000)" fill="#3D568E" fill-rule="nonzero">
            <path d="M291.104848,418.367977 C292.596308,417.66991 294.245139,418.972606 293.911082,420.585107 L293.911082,420.585107 L286.081341,458.379391 C285.81163,459.68129 284.370254,460.362502 283.193125,459.744398 L283.193125,459.744398 L272.549,454.155 L264.507075,459.627267 C263.29332,460.453026 261.652987,459.731341 261.411488,458.31704 L261.411488,458.31704 L261.39157,458.168297 L260.202,446.007 L252.483895,439.592311 C251.396815,438.688859 251.572063,436.990999 252.776366,436.313718 L252.776366,436.313718 L252.9144,436.242757 Z M289.184,423.682 L257.463,438.53 L263.391318,443.456197 C263.751339,443.755403 263.993543,444.170098 264.078916,444.626678 L264.078916,444.626678 L264.103503,444.799715 L265.044,454.424 L271.291968,450.173333 C271.855732,449.789784 272.572275,449.721907 273.19357,449.98384 L273.19357,449.98384 L273.346766,450.056202 L282.702,454.968 L289.184,423.682 Z M282.260589,432.535497 C283.000574,433.275394 283.039587,434.450876 282.377581,435.236702 L282.260756,435.363924 L272.136558,445.489316 C271.355555,446.270411 270.089225,446.270486 269.308131,445.489483 C268.568146,444.749586 268.529133,443.574104 269.191139,442.788278 L269.307964,442.661056 L279.432162,432.535664 C280.213165,431.754569 281.479495,431.754494 282.260589,432.535497 Z" id="推送"></path>
        </g>
    </g>
</svg>
