<?xml version="1.0" encoding="UTF-8"?>
<svg width="16px" height="16px" viewBox="0 0 16 16" version="1.1" xmlns="http://www.w3.org/2000/svg" xmlns:xlink="http://www.w3.org/1999/xlink">
    <!-- Generator: Sketch 64 (93537) - https://sketch.com -->
    <g id="资质管理" stroke="none" stroke-width="1" fill="none" fill-rule="evenodd">
        <g transform="translate(-39.000000, -469.000000)" fill="#FFFFFF" fill-rule="nonzero" id="形状结合">
            <path d="M39.3991508,469.817961 C40.676188,469.124979 42.0443502,468.871138 43.4805576,469.060952 C44.7014081,469.222303 45.8622979,469.641525 46.9579527,470.314352 C47.8316162,469.692773 48.8855588,469.297121 50.1081273,469.126398 C51.5535358,468.924557 53.0334264,469.147657 54.5356908,469.786515 C54.8171845,469.906224 55,470.183011 55,470.48949 L55,482.707661 C55,483.180437 54.5757252,483.539613 54.110666,483.460541 C52.7146325,483.223179 51.4684854,483.223179 50.3702256,483.454917 C49.2927041,483.682279 48.3336461,484.137571 47.4839108,484.824805 C47.4586393,484.845781 47.4320072,484.864877 47.4042971,484.882218 L47.4789813,484.828795 C47.43526,484.864219 47.3896566,484.893798 47.3428381,484.91785 C47.3361996,484.920265 47.3294628,484.923553 47.3226792,484.926743 C47.3000572,484.93861 47.2773045,484.948082 47.2543694,484.956342 C47.2491461,484.956856 47.2437351,484.95873 47.2383024,484.960543 C47.2118431,484.970768 47.1851798,484.978019 47.1584081,484.983733 C47.1555235,484.983137 47.1528406,484.983704 47.1501542,484.984258 C47.1281345,484.98989 47.1057755,484.99333 47.0834121,484.995738 C47.0707598,484.996378 47.0580798,484.997505 47.0453544,484.998308 C47.031693,484.999612 47.0180293,484.999996 47.004392,485.000009 C46.9833248,484.999947 46.9620228,484.999221 46.940681,484.997563 C46.9357584,484.996948 46.9307464,484.996477 46.9257419,484.995957 C46.9014782,484.99387 46.8771595,484.990274 46.8528805,484.985422 C46.8426315,484.982721 46.8325342,484.980459 46.8224908,484.977997 C46.8022761,484.973761 46.7818601,484.967869 46.7615404,484.961044 C46.7399955,484.95318 46.7188928,484.945095 46.6981808,484.936113 C46.6633146,484.921265 46.6286101,484.902917 46.5945911,484.881489 L46.6824346,484.929077 C46.6566478,484.917213 46.6315062,484.903946 46.6071457,484.88934 L46.5945911,484.881489 C45.4526056,484.162176 44.3293547,483.688154 43.223992,483.454917 C42.1298047,483.224038 41.0295658,483.224038 39.9166307,483.455385 C39.4436877,483.553696 39,483.191766 39,482.707661 L39,482.707661 L39,470.48949 C39,470.209189 39.1532174,469.951417 39.3991508,469.817961 Z M43.2813471,470.575116 C42.3162988,470.447572 41.4056154,470.574727 40.5344299,470.959486 L40.5344299,470.959486 L40.5238095,470.963708 L40.5238095,481.813444 L40.7039757,481.79508 C41.5801937,481.713938 42.4532112,481.754602 43.3210595,481.917213 L43.3210595,481.917213 L43.5379127,481.960406 C44.3974356,482.141769 45.257031,482.444072 46.1164482,482.865979 L46.1164482,482.865979 L46.2380952,482.927207 L46.2380952,471.663962 L46.0427698,471.544836 C45.2211093,471.05898 44.3658305,470.74609 43.4731985,470.603147 L43.4731985,470.603147 Z M50.3184032,470.639058 L50.1456091,470.665195 C49.2332253,470.814004 48.4676031,471.113426 47.8392992,471.561413 L47.7619048,471.618525 L47.7619048,482.806552 L47.8354482,482.765811 C48.5263325,482.395653 49.2672801,482.126894 50.0563049,481.960406 L50.2621664,481.919487 C51.2283069,481.739134 52.2707737,481.707137 53.3887669,481.821246 L53.4761905,481.830626 L53.4761905,471.010289 L53.4294386,470.993546 C52.3566554,470.61507 51.3222435,470.498879 50.3184032,470.639058 Z M43.6659312,476.6522 C44.233901,476.723357 44.7998102,476.865156 45.3627607,477.076742 C45.7567572,477.224826 45.9563804,477.664995 45.8086318,478.059887 C45.6608831,478.454778 45.2217119,478.654855 44.8277155,478.506771 C44.374793,478.336539 43.9248291,478.223792 43.4769259,478.167677 C43.031747,478.111904 42.5873006,478.111904 42.1421217,478.167677 C41.7245827,478.219988 41.3437902,477.923143 41.2915978,477.504656 C41.2394054,477.086168 41.5355774,476.704511 41.9531164,476.6522 C42.5238105,476.580701 43.0952371,476.580701 43.6659312,476.6522 Z M43.6659312,473.597657 C44.233901,473.668814 44.7998102,473.810613 45.3627607,474.022199 C45.7567572,474.170283 45.9563804,474.610452 45.8086318,475.005344 C45.6608831,475.400235 45.2217119,475.600312 44.8277155,475.452228 C44.374793,475.281996 43.9248291,475.16925 43.4769259,475.113134 C43.031747,475.057361 42.5873006,475.057361 42.1421217,475.113134 C41.7245827,475.165445 41.3437902,474.868601 41.2915978,474.450113 C41.2394054,474.031625 41.5355774,473.649968 41.9531164,473.597657 C42.5238105,473.526158 43.0952371,473.526158 43.6659312,473.597657 Z"></path>
        </g>
    </g>
</svg>
