<?xml version="1.0" encoding="UTF-8"?>
<svg width="38px" height="43px" viewBox="0 0 38 43" version="1.1" xmlns="http://www.w3.org/2000/svg" xmlns:xlink="http://www.w3.org/1999/xlink">
    <g id="机务管理系统" stroke="none" stroke-width="1" fill-rule="evenodd">
        <g id="面线" transform="translate(-366.000000, -309.000000)" fill-rule="nonzero">
            <path d="M391,309.190307 C392.104569,309.190307 393,310.085737 393,311.190307 L398,311.190307 C401.313708,311.190307 404,313.876598 404,317.190307 L404,317.190307 L404,345.190307 C404,348.504015 401.313708,351.190307 398,351.190307 L398,351.190307 L372,351.190307 C368.686292,351.190307 366,348.504015 366,345.190307 L366,345.190307 L366,317.190307 C366,313.876598 368.686292,311.190307 372,311.190307 L372,311.190307 L377,311.190307 L377,311.190307 C377,310.085737 377.895431,309.190307 379,309.190307 L391,309.190307 Z M398,315.190307 L372,315.190307 C370.895431,315.190307 370,316.085737 370,317.190307 L370,317.190307 L370,345.190307 C370,346.294876 370.895431,347.190307 372,347.190307 L372,347.190307 L398,347.190307 C399.104569,347.190307 400,346.294876 400,345.190307 L400,345.190307 L400,317.190307 C400,316.085737 399.104569,315.190307 398,315.190307 L398,315.190307 Z M393,337.690307 C394.104569,337.690307 395,338.585737 395,339.690307 C395,340.744668 394.184122,341.608472 393.149262,341.684821 L393,341.690307 L377,341.690307 C375.895431,341.690307 375,340.794876 375,339.690307 C375,338.635945 375.815878,337.772141 376.850738,337.695792 L377,337.690307 L393,337.690307 Z M391.570335,321.791501 C392.290692,321.053593 393.468998,320.980913 394.276717,321.650769 C395.126947,322.35588 395.24459,323.616734 394.539478,324.466964 L394.539478,324.466964 L388.976833,331.17446 L388.867518,331.296078 C388.0388,332.146845 386.633014,332.093674 385.87575,331.147299 L385.87575,331.147299 L382.115,326.44805 L378.595471,331.103758 L378.49127,331.230613 C377.804914,332.000248 376.631082,332.125975 375.793985,331.493214 C374.912831,330.827151 374.738465,329.572883 375.404529,328.691728 L375.404529,328.691728 L380.474717,321.984233 L380.57692,321.85949 C381.389523,320.943842 382.850908,320.964798 383.631793,321.940691 L383.631793,321.940691 L387.464,326.73205 L391.460522,321.91353 Z" id="形状结合"></path>
        </g>
    </g>
</svg>
