<?xml version="1.0" encoding="UTF-8"?>
<svg width="38px" height="42px" viewBox="0 0 38 42" version="1.1" xmlns="http://www.w3.org/2000/svg" xmlns:xlink="http://www.w3.org/1999/xlink">

    <g id="机务管理系统" stroke="none" stroke-width="1"  fill-rule="evenodd">
        <g id="面线" transform="translate(-614.000000, -378.000000)" fill-rule="nonzero">
            <path d="M639,378 C640.104569,378 641,378.895431 641,380 L646,380 C649.313708,380 652,382.686292 652,386 L652,386 L652,414 C652,417.313708 649.313708,420 646,420 L646,420 L620,420 C616.686292,420 614,417.313708 614,414 L614,414 L614,386 C614,382.686292 616.686292,380 620,380 L620,380 L625,380 L625,380 C625,378.895431 625.895431,378 627,378 L639,378 Z M646,384 L620,384 C618.895431,384 618,384.895431 618,386 L618,386 L618,414 C618,415.104569 618.895431,416 620,416 L620,416 L646,416 C647.104569,416 648,415.104569 648,414 L648,414 L648,386 C648,384.895431 647.104569,384 646,384 L646,384 Z M644.505861,393.292942 C645.241385,394.037274 645.273332,395.212969 644.606614,395.994802 L644.489026,396.121319 L632.91748,407.555929 C632.176498,408.288142 631.007189,408.323552 630.224768,407.664415 L630.098086,407.548128 L623.586377,401.041859 C622.805003,400.261136 622.804473,398.994807 623.585196,398.213432 C624.324827,397.473182 625.500295,397.433746 626.286359,398.09547 L626.413623,398.21225 L631.519,403.313 L641.677484,393.276107 C642.463168,392.499721 643.729475,392.507258 644.505861,393.292942 Z" id="合格"></path>
        </g>
    </g>
</svg>
