<?xml version="1.0" encoding="UTF-8"?>
<svg width="60px" height="40px" viewBox="0 0 60 40" version="1.1" xmlns="http://www.w3.org/2000/svg" xmlns:xlink="http://www.w3.org/1999/xlink">
    <title>-mockplus-</title>
    <g id="页面-1" stroke="none" stroke-width="1" fill="none" fill-rule="evenodd">
        <g id="menu" transform="translate(-79.000000, -105.000000)">
            <g id="-mockplus-dup-|4DCAEA2A-EB3B-4388-9B3D-53D1A7D2558E|btn/NA未选中" transform="translate(79.000000, 105.000000)">
                <g id="btn/NA未选中">
                    <g id="编组-5" stroke="#979797">
                        <rect id="矩形" x="0.5" y="0.5" width="59" height="39"></rect>
                    </g>
                    <path d="M19.86726,10.8695909 C24.198826,7.35071229 30.5985336,6.23179797 39.0663829,7.51284797 C33.8330864,7.86111458 30.3449013,8.25043718 28.6018273,8.68081576 C27.3237621,8.99638006 25.8339579,9.72597179 24.1324147,10.8695909 C32.6219129,8.91260444 52.6489173,14.8944754 49.7077469,25.9301688 C46.7665765,36.9658622 18.6935753,35.8772462 12.3300966,27.5303678 C8.08777744,21.9657822 9.63833139,17.0645187 16.9817584,12.8265774 C16.9817584,12.1370554 15.4312045,12.1370554 12.3300966,12.8265774 C13.9626074,11.6987546 16.4749952,11.0464257 19.86726,10.8695909 Z M13.193128,20.8242761 C10.2784908,31.7382436 41.2362749,34.1910318 46.5583727,26.633437 C50.1064379,21.5950405 47.1052549,17.4572527 37.5548237,14.2200736 C23.2567848,11.346897 15.1362195,13.5482978 13.193128,20.8242761 Z" id="形状结合" fill="#888888"></path>
                </g>
            </g>
        </g>
    </g>
</svg>