<?xml version="1.0" encoding="UTF-8"?>
<svg width="60px" height="40px" viewBox="0 0 60 40" version="1.1" xmlns="http://www.w3.org/2000/svg" xmlns:xlink="http://www.w3.org/1999/xlink">
    <g id="页面-1" stroke="none" stroke-width="1" fill="none" fill-rule="evenodd">
        <g id="menu" transform="translate(-138.000000, -105.000000)">
            <g id="-mockplus-dup-|B2ED5316-00EE-4DB3-8ADE-E580E3AA3590|btn/打钩选中" transform="translate(138.000000, 105.000000)">
                <g id="btn/打钩选中">
                    <g id="编组-5">
                        <rect id="矩形" fill="#3280E7" x="0" y="0" width="60" height="40"></rect>
                        <g id="编组" transform="translate(10.000000, 7.000000)" fill="#FFFFFF">
                            <path d="M9.86726,3.86959094 C14.198826,0.350712293 20.5985336,-0.768202031 29.0663829,0.512847967 C23.8330864,0.861114582 20.3449013,1.25043718 18.6018273,1.68081576 C17.3237621,1.99638006 15.8339579,2.72597179 14.1324147,3.86959094 C22.6219129,1.91260444 42.6489173,7.89447542 39.7077469,18.9301688 C36.7665765,29.9658622 8.69357527,28.8772462 2.33009657,20.5303678 C-1.91222256,14.9657822 -0.361668612,10.0645187 6.98175841,5.82657744 C6.98175841,5.13705539 5.43120447,5.13705539 2.33009657,5.82657744 C3.96260743,4.69875456 6.47499524,4.04642573 9.86726,3.86959094 Z M3.19312805,13.8242761 C0.278490807,24.7382436 31.2362749,27.1910318 36.5583727,19.633437 C40.1064379,14.5950405 37.1052549,10.4572527 27.5548237,7.22007358 C13.2567848,4.34689697 5.13621954,6.54829782 3.19312805,13.8242761 Z" id="形状结合"></path>
                        </g>
                    </g>
                </g>
            </g>
        </g>
    </g>
</svg>
