<?xml version="1.0" encoding="UTF-8"?>
<svg width="42px" height="40px" viewBox="0 0 42 40" version="1.1" xmlns="http://www.w3.org/2000/svg" xmlns:xlink="http://www.w3.org/1999/xlink">
    <g id="机务管理系统" stroke="none" stroke-width="1" fill-rule="evenodd">
        <g id="面线" transform="translate(-197.000000, -481.000000)" fill-rule="nonzero">
            <g id="编组" transform="translate(197.000000, 481.000000)">
                <path d="M33,0 C35.6887547,0 37.8818181,2.12230671 37.9953805,4.78311038 L38,5 L38.0011864,20.1002585 C40.2828356,20.5639873 42,22.5814612 42,24.9999994 L42,24.9999994 L42,34.9999994 C42,37.7614237 39.7614237,39.9999994 37,39.9999994 L37,39.9999994 L5,39.9999994 C2.23857625,39.9999994 0,37.7614237 0,34.9999994 L0,34.9999994 L0,24.9999994 C0,22.5811084 1.71766536,20.5633987 3.99981203,20.1000557 L4,5 C4,2.3112453 6.12230671,0.118181885 8.78311038,0.00461951385 L9,0 L33,0 Z M9.817,23.999 L5,24 C4.48716416,24 4.06449284,24.3860402 4.00672773,24.8833789 L4.00672773,24.8833789 L4,25 L4,35 C4,35.5522847 4.44771525,36 5,36 L5,36 L37,36 C37.5522847,36 38,35.5522847 38,35 L38,35 L38,25 C38,24.4477153 37.5522847,24 37,24 L37,24 L32.182,23.999 L32.1436065,24.0929205 C30.3483828,28.2115148 25.9638531,31 21,31 C16.0361469,31 11.6516172,28.2115148 9.85639353,24.0929205 L9.85639353,24.0929205 L9.817,23.999 Z M33,4 L9,4 C8.48716416,4 8.06449284,4.38604019 8.00672773,4.88337887 L8,5 L8,19.999 L11.2477957,19.9999994 C12.1101444,19.9999994 12.868696,20.5515149 13.1417021,21.3570996 L13.1871076,21.5110515 C13.9813088,24.6610884 17.1963252,26.9999994 21,26.9999994 C24.8036748,26.9999994 28.0186912,24.6610884 28.8128924,21.5110515 C29.0368905,20.6226087 29.8359588,19.9999994 30.7522043,19.9999994 L30.7522043,19.9999994 L34,19.999 L34,5 C34,4.48716416 33.6139598,4.06449284 33.1166211,4.00672773 L33,4 Z M28.4380481,8.61002957 C29.1653044,9.36244094 29.1842621,10.5384172 28.5089487,11.3128376 L28.3899704,11.4380481 L21.1478478,18.4380481 C20.3787484,19.1814345 19.1709333,19.1827623 18.400354,18.4688798 L18.2824448,18.3502218 L14.5933098,14.3189806 C13.8476029,13.5041217 13.9036617,12.2390332 14.7185205,11.4933263 C15.4904921,10.7868671 16.6665479,10.7999982 17.4222568,11.4961872 L17.5441748,11.618537 L19.845,14.132 L25.6100296,8.56195195 C26.4042416,7.79429248 27.6703886,7.81581756 28.4380481,8.61002957 Z" id="接收处理"></path>
            </g>
        </g>
    </g>
</svg>
