<?xml version="1.0" encoding="UTF-8"?>
<svg width="18px" height="18px" viewBox="0 0 18 18" version="1.1" xmlns="http://www.w3.org/2000/svg" xmlns:xlink="http://www.w3.org/1999/xlink">
    <!-- Generator: Sketch 64 (93537) - https://sketch.com -->
    <title>删除</title>
    <desc>Created with Sketch.</desc>
    <g id="资质管理" stroke="none" stroke-width="1"  fill-rule="evenodd">
        <g transform="translate(-1472.000000, -125.000000)" fill-rule="nonzero" id="编组-4">
            <g transform="translate(1298.000000, 118.000000)">
                <g id="编组-12" transform="translate(164.000000, 0.000000)">
                    <path d="M19,7 C21.3268171,7 23.2205422,8.85428748 23.2840678,11.1657551 L23.2857143,11.2857143 L27.1428571,11.2857143 C27.6162441,11.2857143 28,11.6694702 28,12.1428571 C28,12.5947265 27.6503381,12.9649279 27.2068267,12.997649 L27.1428571,13 L25.428,13 L25.4285714,22.4285714 C25.4285714,23.7941106 24.3641596,24.9110432 23.019764,24.994941 L22.8571429,25 L15.1428571,25 C13.7226964,25 12.5714286,23.8487322 12.5714286,22.4285714 L12.5714286,22.4285714 L12.571,13 L10.8571429,13 C10.3837559,13 10,12.6162441 10,12.1428571 C10,11.6909878 10.3496619,11.3207864 10.7931733,11.2880653 L10.8571429,11.2857143 L14.7142857,11.2857143 C14.7142857,8.91877964 16.6330654,7 19,7 Z M23.714,13 L14.285,13 L14.2857143,22.4285714 C14.2857143,22.842785 14.5795274,23.1883748 14.970113,23.2683002 L15.0788876,23.2833633 L15.1428571,23.2857143 L22.8571429,23.2857143 C23.3305298,23.2857143 23.7142857,22.9019584 23.7142857,22.4285714 L23.7142857,22.4285714 L23.714,13 Z M17.2857143,15.1428571 C17.7375836,15.1428571 18.1077851,15.4925191 18.1405061,15.9360304 L18.1428571,16 L18.1428571,20.2857143 C18.1428571,20.7591012 17.7591012,21.1428571 17.2857143,21.1428571 C16.8338449,21.1428571 16.4636435,20.7931952 16.4309225,20.3496839 L16.4285714,20.2857143 L16.4285714,16 C16.4285714,15.5266131 16.8123274,15.1428571 17.2857143,15.1428571 Z M20.7142857,15.1428571 C21.1661551,15.1428571 21.5363565,15.4925191 21.5690775,15.9360304 L21.5714286,16 L21.5714286,20.2857143 C21.5714286,20.7591012 21.1876726,21.1428571 20.7142857,21.1428571 C20.2624164,21.1428571 19.8922149,20.7931952 19.8594939,20.3496839 L19.8571429,20.2857143 L19.8571429,16 C19.8571429,15.5266131 20.2408988,15.1428571 20.7142857,15.1428571 Z M19,8.71428571 C17.6121156,8.71428571 16.4810407,9.81381781 16.4303451,11.1893122 L16.4285714,11.2857143 L21.5714286,11.2857143 C21.5714286,9.8655535 20.4201608,8.71428571 19,8.71428571 Z" id="形状结合"></path>
                </g>
            </g>
        </g>
    </g>
</svg>
