<?xml version="1.0" encoding="UTF-8"?>
<svg width="17px" height="18px" viewBox="0 0 17 18" version="1.1" xmlns="http://www.w3.org/2000/svg" xmlns:xlink="http://www.w3.org/1999/xlink">
    <!-- Generator: Sketch 64 (93537) - https://sketch.com -->
    <g id="资质管理" stroke="none" stroke-width="1" fill="none" fill-rule="evenodd">
        <g transform="translate(-1831.000000, -125.000000)" fill="#3D568E" fill-rule="nonzero" id="编组-4">
            <g transform="translate(1298.000000, 118.000000)">
                <g id="编组-17" transform="translate(522.000000, 0.000000)">
                    <path d="M13.1864141,7 C13.6345179,7 14.0016343,7.34966191 14.0340827,7.79317328 L14.0364141,7.85714286 L14.0359379,9.86239092 C15.5494488,8.57980009 17.4688332,7.85714286 19.5,7.85714286 C24.1944204,7.85714286 28,11.6947021 28,16.4285714 C28,21.1624407 24.1944204,25 19.5,25 C14.8055796,25 11,21.1624407 11,16.4285714 C11,15.9551845 11.380558,15.5714286 11.85,15.5714286 C12.319442,15.5714286 12.7,15.9551845 12.7,16.4285714 C12.7,20.2156669 15.7444637,23.2857143 19.5,23.2857143 C23.2555363,23.2857143 26.3,20.2156669 26.3,16.4285714 C26.3,12.641476 23.2555363,9.57142857 19.5,9.57142857 C17.817268,9.57142857 16.2334283,10.1896481 15.0036984,11.2841773 L17.4364141,11.2857143 C17.8845179,11.2857143 18.2516343,11.6353762 18.2840827,12.0788876 L18.2864141,12.1428571 C18.2864141,12.5947265 17.9396661,12.9649279 17.4998506,12.997649 L17.4364141,13 L13.1864141,13 C12.7383104,13 12.371194,12.6503381 12.3387456,12.2068267 L12.3364141,12.1428571 L12.3364141,7.85714286 C12.3364141,7.38375593 12.7169721,7 13.1864141,7 Z" id="形状结合"></path>
                </g>
            </g>
        </g>
    </g>
</svg>
