<?xml version="1.0" encoding="UTF-8"?>
<svg width="42px" height="42px" viewBox="0 0 42 42" version="1.1" xmlns="http://www.w3.org/2000/svg" xmlns:xlink="http://www.w3.org/1999/xlink">
    <g id="机务管理系统" stroke="none" stroke-width="1"  fill-rule="evenodd">
        <g id="面线" transform="translate(-425.000000, -378.000000)" fill-rule="nonzero">
            <path d="M446,378 C457.59798,378 467,387.40202 467,399 C467,410.59798 457.59798,420 446,420 C434.40202,420 425,410.59798 425,399 C425,387.40202 434.40202,378 446,378 Z M446,382 C436.611159,382 429,389.611159 429,399 C429,408.388841 436.611159,416 446,416 C455.388841,416 463,408.388841 463,399 C463,389.611159 455.388841,382 446,382 Z M453.894427,392.211146 C454.835339,392.681601 455.243363,393.79366 454.853371,394.751938 L454.788854,394.894427 L447.788854,408.894427 C447.077221,410.317693 445.091646,410.366771 444.292155,409.041662 L444.211146,408.894427 L437.211146,394.894427 C436.717167,393.90647 437.117616,392.705124 438.105573,392.211146 C439.046484,391.74069 440.180946,392.081506 440.713573,392.968466 L440.788854,393.105573 L446,403.528 L451.211146,393.105573 C451.705124,392.117616 452.90647,391.717167 453.894427,392.211146 Z" id="形状结合"></path>
        </g>
    </g>
</svg>
