<?xml version="1.0" encoding="UTF-8"?>
<svg width="42px" height="42px" viewBox="0 0 42 42" version="1.1" xmlns="http://www.w3.org/2000/svg" xmlns:xlink="http://www.w3.org/1999/xlink">

    <g id="机务管理系统" stroke="none" stroke-width="1" fill-rule="evenodd">
        <g id="面线" transform="translate(-258.000000, -574.000000)"  fill-rule="nonzero">
            <path d="M279,574 C290.59798,574 300,583.40202 300,595 C300,606.59798 290.59798,616 279,616 C267.40202,616 258,606.59798 258,595 C258,583.40202 267.40202,574 279,574 Z M279,578 C269.611159,578 262,585.611159 262,595 C262,604.388841 269.611159,612 279,612 C288.388841,612 296,604.388841 296,595 C296,585.611159 288.388841,578 279,578 Z M280.104,583 L282.756,583.468 C282.574,584.56 282.366,585.626 282.132,586.614 L282.132,586.614 L290.036,586.614 L290.036,589.188 L288.32,589.188 C288.138,593.4 287.176,596.962 285.434,599.874 C286.994,602.006 288.814,603.644 290.894,604.84 L290.894,604.84 L289.334,607.154 C287.228,605.906 285.408,604.242 283.848,602.136 C282.132,604.164 279.948,605.828 277.322,607.102 L277.322,607.102 L275.658,604.866 C278.492,603.618 280.728,601.928 282.34,599.796 C281.248,597.924 280.338,595.792 279.558,593.452 C279.116,594.206 278.648,594.908 278.18,595.532 L278.18,595.532 L276.516,593.426 C278.284,590.852 279.48,587.368 280.104,583 L280.104,583 Z M276.412,584.56 L276.412,595.012 L270.744,595.012 L270.744,602.24 C272.772,601.564 274.826,600.706 276.906,599.718 L276.906,599.718 L277.296,602.188 C274.488,603.514 271.394,604.736 267.962,605.854 L267.962,605.854 L267.156,603.514 C267.78,603.254 268.118,602.682 268.118,601.798 L268.118,601.798 L268.118,592.516 L273.76,592.516 L273.76,587.134 L267,587.134 L267,584.56 L276.412,584.56 Z M285.668,589.188 L281.404,589.188 C281.274,589.578 281.144,589.968 280.988,590.358 C281.768,592.984 282.704,595.324 283.822,597.352 C284.966,595.012 285.564,592.282 285.668,589.188 L285.668,589.188 Z" id="形状结合"></path>
        </g>
    </g>
</svg>
