<?xml version="1.0" encoding="UTF-8"?>
<svg width="18px" height="18px" viewBox="0 0 18 18" version="1.1" xmlns="http://www.w3.org/2000/svg" xmlns:xlink="http://www.w3.org/1999/xlink">
    <!-- Generator: Sketch 64 (93537) - https://sketch.com -->
    <title>形状结合备份 38</title>
    <desc>Created with Sketch.</desc>
    <g id="资质管理" stroke="none" stroke-width="1" fill="none" fill-rule="evenodd">
        <g transform="translate(-1748.000000, -125.000000)" fill="#3D568E" fill-rule="nonzero" id="编组-4">
            <g transform="translate(1298.000000, 118.000000)">
                <g id="编组-18" transform="translate(440.000000, 0.000000)">
                    <path d="M25.4285714,7 C26.8487322,7 28,8.15126779 28,9.57142857 L28,9.57142857 L28,22.4285714 C28,23.8487322 26.8487322,25 25.4285714,25 L25.4285714,25 L12.5714286,25 C11.1512678,25 10,23.8487322 10,22.4285714 L10,22.4285714 L10,9.57142857 C10,8.15126779 11.1512678,7 12.5714286,7 L12.5714286,7 Z M13.428,8.714 L12.5714286,8.71428571 C12.0980416,8.71428571 11.7142857,9.09804164 11.7142857,9.57142857 L11.7142857,9.57142857 L11.7142857,22.4285714 C11.7142857,22.9019584 12.0980416,23.2857143 12.5714286,23.2857143 L12.5714286,23.2857143 L25.4285714,23.2857143 C25.9019584,23.2857143 26.2857143,22.9019584 26.2857143,22.4285714 L26.2857143,22.4285714 L26.2857143,9.57142857 C26.2857143,9.09804164 25.9019584,8.71428571 25.4285714,8.71428571 L25.4285714,8.71428571 L24.571,8.714 L24.5714286,13 C24.5714286,14.3655392 23.5070168,15.4824717 22.1626212,15.5663696 L22,15.5714286 L16,15.5714286 C14.5798392,15.5714286 13.4285714,14.4201608 13.4285714,13 L13.4285714,13 L13.428,8.714 Z M22.8571429,8.71415435 L15.1428571,8.71415435 L15.1428571,13 C15.1428571,13.4518693 15.4925191,13.8220708 15.9360304,13.8547918 L15.9360304,13.8547918 L16,13.8571429 L22,13.8571429 C22.4733869,13.8571429 22.8571429,13.4733869 22.8571429,13 L22.8571429,13 L22.8571429,8.71415435 Z M20.2857143,9.57142857 C20.7375836,9.57142857 21.1077851,9.92109048 21.1405061,10.3646019 L21.1428571,10.4285714 L21.1428571,12.1428571 C21.1428571,12.6162441 20.7591012,13 20.2857143,13 C19.8338449,13 19.4636435,12.6503381 19.4309225,12.2068267 L19.4285714,12.1428571 L19.4285714,10.4285714 C19.4285714,9.9551845 19.8123274,9.57142857 20.2857143,9.57142857 Z" id="形状结合备份-38"></path>
                </g>
            </g>
        </g>
    </g>
</svg>