<?xml version="1.0" encoding="UTF-8"?>
<svg width="42px" height="42px" viewBox="0 0 42 42" version="1.1" xmlns="http://www.w3.org/2000/svg" xmlns:xlink="http://www.w3.org/1999/xlink">

    <g id="机务管理系统" stroke="none" stroke-width="1" fill-rule="evenodd">
        <g id="面线" transform="translate(-140.000000, -574.000000)" fill-rule="nonzero">
            <path d="M174,574 C178.418278,574 182,577.581722 182,582 L182,582 L182,608 C182,612.418278 178.418278,616 174,616 L174,616 L148,616 C143.581722,616 140,612.418278 140,608 L140,608 L140,582 C140,577.581722 143.581722,574 148,574 L148,574 Z M174,578 L148,578 C145.790861,578 144,579.790861 144,582 L144,582 L144,608 C144,610.209139 145.790861,612 148,612 L148,612 L174,612 C176.209139,612 178,610.209139 178,608 L178,608 L178,582 C178,579.790861 176.209139,578 174,578 L174,578 Z M173.714839,605.772903 L173.714839,607.114839 L148,607.114839 L148,605.772903 L173.714839,605.772903 Z M160.562263,584.469677 C161.954521,584.469677 162.958164,585.347452 163.568094,587.154634 C164.137899,588.858548 164.280035,591.156251 163.994503,594.047742 C163.708972,596.939233 163.113044,599.236936 162.20672,600.94085 C161.242425,602.722215 160.062873,603.625806 158.670615,603.625806 C157.261583,603.625806 156.260489,602.722215 155.664784,600.94085 C155.094979,599.236936 154.952843,596.939233 155.238374,594.047742 C155.523906,591.156251 156.119834,588.858548 157.026158,587.154634 C157.976229,585.347452 159.15323,584.469677 160.562263,584.469677 Z M170.626779,584.469677 C172.019037,584.469677 173.02268,585.347452 173.63261,587.154634 C174.202415,588.858548 174.344551,591.156251 174.05902,594.047742 C173.773488,596.939233 173.17756,599.236936 172.271236,600.94085 C171.306941,602.722215 170.127389,603.625806 168.735131,603.625806 C167.326099,603.625806 166.325005,602.722215 165.7293,600.94085 C165.159495,599.236936 165.017359,596.939233 165.302891,594.047742 C165.588422,591.156251 166.18435,588.858548 167.090674,587.154634 C168.040745,585.347452 169.217746,584.469677 170.626779,584.469677 Z M153.984636,584.831114 L152.164371,603.26437 L150.201791,603.26437 L151.662591,588.471295 C150.841874,589.478153 149.862136,590.226843 148.706601,590.717364 L148.706601,590.717364 L149.00233,587.722605 C149.559499,587.51607 150.165513,587.154634 150.820372,586.638296 C151.480329,586.070324 152.042191,585.476536 152.508507,584.831114 L152.508507,584.831114 L153.984636,584.831114 Z M160.309873,587.025549 C159.353744,587.025549 158.603745,587.825873 158.054778,589.478153 C157.676767,590.588279 157.392159,592.111476 157.200955,594.047742 C157.0123,595.958191 156.99608,597.481388 157.152294,598.617331 C157.377489,600.243794 157.966876,601.069935 158.923005,601.069935 C159.86236,601.069935 160.614908,600.243794 161.1781,598.617331 C161.55866,597.481388 161.843268,595.958191 162.031923,594.047742 C162.223127,592.111476 162.239347,590.588279 162.080584,589.478153 C161.841164,587.825873 161.249228,587.025549 160.309873,587.025549 Z M170.374389,587.025549 C169.41826,587.025549 168.668261,587.825873 168.119294,589.478153 C167.741283,590.588279 167.456675,592.111476 167.265471,594.047742 C167.076816,595.958191 167.060596,597.481388 167.21681,598.617331 C167.442005,600.243794 168.031392,601.069935 168.987521,601.069935 C169.926876,601.069935 170.679424,600.243794 171.242616,598.617331 C171.623176,597.481388 171.907784,595.958191 172.096439,594.047742 C172.287643,592.111476 172.303864,590.588279 172.1451,589.478153 C171.905681,587.825873 171.313744,587.025549 170.374389,587.025549 Z" id="录入分数"></path>
        </g>
    </g>
</svg>
