<?xml version="1.0" standalone="no"?><!DOCTYPE svg PUBLIC "-//W3C//DTD SVG 1.1//EN"
        "http://www.w3.org/Graphics/SVG/1.1/DTD/svg11.dtd">
<svg class="icon" width="42px" height="42.00px" viewBox="0 0 1024 1024" version="1.1"
     xmlns="http://www.w3.org/2000/svg">
    <path d="M329.216 253.44c0 19.072-15.488 34.56-34.56 34.56s-34.56-15.488-34.56-34.56 15.488-34.56 34.56-34.56 34.56 15.488 34.56 34.56z m0 0M329.216 380.16c0 19.072-15.488 34.56-34.56 34.56s-34.56-15.488-34.56-34.56 15.488-34.56 34.56-34.56 34.56 15.488 34.56 34.56z m0 0M259.968 506.88c0 9.088 3.712 18.048 10.112 24.448 6.4 6.4 15.36 10.112 24.448 10.112 9.088 0 18.048-3.712 24.448-10.112 6.4-6.4 10.112-15.36 10.112-24.448 0-9.088-3.712-18.048-10.112-24.448-6.4-6.4-15.36-10.112-24.448-10.112-9.088 0-18.048 3.712-24.448 10.112-6.272 6.4-10.112 15.488-10.112 24.448z m0 0M641.664 284.672H409.856c-17.152 0-31.232-13.952-31.232-31.232 0-17.28 13.952-31.232 31.232-31.232h231.936c17.28 0 31.232 13.952 31.232 31.232-0.128 17.28-14.08 31.232-31.36 31.232z m0 0M641.664 411.392H409.856c-17.152 0-31.232-13.952-31.232-31.232 0-17.28 13.952-31.232 31.232-31.232h231.936c17.28 0 31.232 13.952 31.232 31.232-0.128 17.28-14.08 31.232-31.36 31.232z m0 0M641.664 538.112H409.856c-17.152 0-31.232-13.952-31.232-31.232 0-17.28 13.952-31.232 31.232-31.232h231.936c17.28 0 31.232 13.952 31.232 31.232-0.128 17.28-14.08 31.232-31.36 31.232z m0 0M259.968 625.792c0 9.088 3.712 18.048 10.112 24.448 6.4 6.4 15.36 10.112 24.448 10.112 9.088 0 18.048-3.712 24.448-10.112 6.4-6.4 10.112-15.36 10.112-24.448 0-9.088-3.712-18.048-10.112-24.448-6.4-6.4-15.36-10.112-24.448-10.112-9.088 0-18.048 3.712-24.448 10.112-6.272 6.4-10.112 15.36-10.112 24.448z m0 0"
    />
    <path d="M641.664 657.024H409.856c-17.152 0-31.232-13.952-31.232-31.232 0-17.28 13.952-31.232 31.232-31.232h231.936c17.28 0 31.232 13.952 31.232 31.232-0.128 17.28-14.08 31.232-31.36 31.232z m0 0"
    />
    <path d="M968.448 236.928c0-112.768-41.6-154.368-93.056-154.368H242.688c-52.864 0-95.872 43.008-95.872 95.872v602.752H53.632c0 140.8 51.968 162.048 116.096 162.048h555.008c52.864 0 95.872-43.008 95.872-95.872V236.928h147.84zM782.336 847.36c0 31.744-25.856 57.472-57.472 57.472-51.328 0-77.696-11.008-77.696-123.648H185.216V178.432c0-31.744 25.728-57.472 57.472-57.472h564.864c-15.232 24.064-24.704 60.544-25.088 112.64-0.128 1.152-0.256 2.304-0.256 3.328l0.128 610.432z m0 0"
    />
</svg>
