<?xml version="1.0" encoding="UTF-8"?>
<svg width="16px" height="16px" viewBox="0 0 16 16" version="1.1" xmlns="http://www.w3.org/2000/svg" xmlns:xlink="http://www.w3.org/1999/xlink">
    <!-- Generator: Sketch 64 (93537) - https://sketch.com -->
    <title>形状结合</title>
    <desc>Created with Sketch.</desc>
    <g id="资质管理" stroke="none" stroke-width="1" fill="none" fill-rule="evenodd">
        <g transform="translate(-39.000000, -381.000000)" fill="#FFFFFF" fill-rule="nonzero" id="形状结合">
            <path d="M42.4821258,393.640033 C43.6838595,394.810346 45.2884624,395.47619 47,395.47619 C48.6969943,395.47619 50.289042,394.821692 51.4878786,393.669058 C51.7912086,393.377418 52.2735269,393.386895 52.5651667,393.690225 C52.8568065,393.993555 52.8473297,394.475873 52.5439997,394.767513 C51.0640753,396.190402 49.0947526,397 47,397 C44.8872736,397 42.9024606,396.176384 41.4189958,394.731706 C41.1175386,394.438131 41.111149,393.955762 41.4047243,393.654305 C41.6982995,393.352848 42.1806686,393.346458 42.4821258,393.640033 Z M44.8236186,384.60722 L44.8720814,384.651728 L47.013,386.793 L49.1549921,384.651728 C49.4525344,384.354186 49.9349458,384.354186 50.2324881,384.651728 C50.5143703,384.93361 50.5292062,385.381414 50.2769959,385.680761 L50.2324881,385.729224 L47.913,388.047 L50.047619,388.047619 C50.4684074,388.047619 50.8095238,388.388735 50.8095238,388.809524 C50.8095238,389.211185 50.4987132,389.540253 50.1044809,389.569339 L50.047619,389.571429 L47.761,389.571 L47.761,390.142 L49.2857143,390.142857 C49.7065027,390.142857 50.047619,390.483974 50.047619,390.904762 C50.047619,391.306424 49.7368085,391.635491 49.3425761,391.664577 L49.2857143,391.666667 L47.761,391.666 L47.7619048,393.571429 C47.7619048,393.992217 47.4207884,394.333333 47,394.333333 C46.5983384,394.333333 46.2692704,394.022523 46.240185,393.62829 L46.2380952,393.571429 L46.238,391.666 L44.7142857,391.666667 C44.2934973,391.666667 43.952381,391.32555 43.952381,390.904762 C43.952381,390.5031 44.2631915,390.174032 44.6574239,390.144947 L44.7142857,390.142857 L46.238,390.142 L46.238,389.571 L43.952381,389.571429 C43.5315926,389.571429 43.1904762,389.230312 43.1904762,388.809524 C43.1904762,388.407862 43.5012868,388.078794 43.8955191,388.049709 L43.952381,388.047619 L46.113,388.047 L43.7945853,385.729224 C43.497043,385.431682 43.497043,384.94927 43.7945853,384.651728 C44.0764675,384.369846 44.524271,384.35501 44.8236186,384.60722 Z M52.6085455,392.238095 C52.8189397,391.873682 53.2849133,391.748825 53.6493267,391.959219 C54.0137402,392.169613 54.1385974,392.635587 53.9282032,393 C53.717809,393.364413 53.2518354,393.489271 52.887422,393.278876 C52.5230085,393.068482 52.3981513,392.602509 52.6085455,392.238095 Z M40.3506733,391.959219 C40.7150867,391.748825 41.1810603,391.873682 41.3914545,392.238095 C41.6018487,392.602509 41.4769915,393.068482 41.112578,393.278876 C40.7481646,393.489271 40.282191,393.364413 40.0717968,393 C39.8614026,392.635587 39.9862598,392.169613 40.3506733,391.959219 Z M45.6775373,381.841484 C45.796697,382.245048 45.5661418,382.668799 45.1625779,382.787959 C42.4333179,383.593823 40.5238095,386.110394 40.5238095,389 C40.5238095,389.57552 40.5986976,390.140409 40.7449741,390.68494 C40.8541396,391.091321 40.6131985,391.509255 40.2068172,391.61842 C39.8004359,391.727585 39.3825027,391.486644 39.2733372,391.080263 C39.0925067,390.4071 39,389.709313 39,389 C39,385.430475 41.3583387,382.322384 44.7310624,381.326525 C45.1346263,381.207365 45.5583775,381.43792 45.6775373,381.841484 Z M49.3247161,381.343217 C52.6694196,382.357516 55,385.45168 55,389 C55,389.663005 54.9191794,390.316036 54.7608644,390.948446 C54.658679,391.356638 54.2449362,391.604706 53.8367438,391.50252 C53.4285514,391.400335 53.1804837,390.986592 53.282669,390.5784 C53.4107497,390.066765 53.4761905,389.538003 53.4761905,389 C53.4761905,386.127539 51.5891694,383.622261 48.8824995,382.801449 C48.47982,382.679334 48.2523772,382.253904 48.3744919,381.851225 C48.4966067,381.448545 48.9220365,381.221102 49.3247161,381.343217 Z M47,381 C47.4207884,381 47.7619048,381.341116 47.7619048,381.761905 C47.7619048,382.182693 47.4207884,382.52381 47,382.52381 C46.5792116,382.52381 46.2380952,382.182693 46.2380952,381.761905 C46.2380952,381.341116 46.5792116,381 47,381 Z"></path>
        </g>
    </g>
</svg>