<?xml version="1.0" encoding="UTF-8"?>
<svg width="42px" height="41px" viewBox="0 0 42 41" version="1.1" xmlns="http://www.w3.org/2000/svg" xmlns:xlink="http://www.w3.org/1999/xlink">
    <title>形状结合</title>
    <g id="机务管理系统" stroke="none" stroke-width="1"   fill-rule="evenodd">
        <g id="面线" transform="translate(-19.000000, -311.000000)"   fill-rule="nonzero">
            <path d="M51,311.455844 C54.2383969,311.455844 56.8775718,314.021419 56.9958615,317.230906 L57,317.455844 L57,320.926016 C57,322.030586 56.1045695,322.926016 55,322.926016 C53.9456382,322.926016 53.0818349,322.110138 53.0054857,321.075279 L53,320.926016 L53,317.455844 C53,316.401482 52.1841222,315.537679 51.1492623,315.46133 L51,315.455844 L25,315.455844 C23.9456382,315.455844 23.0818349,316.271722 23.0054857,317.306582 L23,317.455844 L23,345.455844 C23,346.510206 23.8158778,347.374009 24.8507377,347.450358 L25,347.455844 L34.3942334,347.455844 C35.4988029,347.455844 36.3942334,348.351275 36.3942334,349.455844 C36.3942334,350.510206 35.5783556,351.374009 34.5434957,351.450358 L34.3942334,351.455844 L25,351.455844 C21.7616031,351.455844 19.1224282,348.890269 19.0041385,345.680782 L19,345.455844 L19,317.455844 C19,314.217447 21.5655749,311.578272 24.7750617,311.459983 L25,311.455844 L51,311.455844 Z M49.7336009,329.536529 C51.8569119,327.080488 55.5692105,326.810757 58.025252,328.934067 C60.5116178,331.083595 60.8197298,334.827911 58.7181904,337.354967 L58.7181904,337.354967 L48.9079585,349.151562 C48.6391645,349.474781 48.275358,349.705085 47.8682169,349.80976 L47.8682169,349.80976 L41.710659,351.392851 C40.4451629,351.718207 39.2126597,350.762495 39.2126597,349.455844 L39.2126597,349.455844 L39.2126597,342.925348 C39.2126597,342.458632 39.3758836,342.006611 39.6740642,341.647567 L39.6740642,341.647567 Z M55.4092315,331.960028 C54.6243818,331.281505 53.4380841,331.3677 52.7595614,332.15255 L52.7595614,332.15255 L43.212,343.648 L43.212,346.876 L46.245,346.096 L55.6427087,334.797349 C56.3135293,333.990701 56.2556613,332.815949 55.5353974,332.078712 L55.5353974,332.078712 Z M40,329.955844 C41.1045695,329.955844 42,330.851275 42,331.955844 C42,333.010206 41.1841222,333.874009 40.1492623,333.950358 L40,333.955844 L32,333.955844 C30.8954305,333.955844 30,333.060414 30,331.955844 C30,330.901482 30.8158778,330.037679 31.8507377,329.96133 L32,329.955844 L40,329.955844 Z M46,321.955844 C47.1045695,321.955844 48,322.851275 48,323.955844 C48,325.010206 47.1841222,325.874009 46.1492623,325.950358 L46,325.955844 L32,325.955844 C30.8954305,325.955844 30,325.060414 30,323.955844 C30,322.901482 30.8158778,322.037679 31.8507377,321.96133 L32,321.955844 L46,321.955844 Z" id="形状结合"></path>
        </g>
    </g>
</svg>