<?xml version="1.0" encoding="UTF-8"?>
<svg width="16px" height="17px" viewBox="0 0 16 17" version="1.1" xmlns="http://www.w3.org/2000/svg" xmlns:xlink="http://www.w3.org/1999/xlink">
    <!-- Generator: Sketch 64 (93537) - https://sketch.com -->
    <g id="资质管理" stroke="none" stroke-width="1" fill="none" fill-rule="evenodd">
        <g transform="translate(-207.000000, -262.000000)" id="编组-6">
            <g transform="translate(190.000000, 170.000000)">
                <g id="选择框" transform="translate(17.000000, 92.250000)">
                    <g id="ic/选择/单/中">
                        <rect id="矩形备份-3" fill="#3876E6" x="0" y="0" width="16" height="16" rx="8"></rect>
                        <path d="M3.35355762,8.35627903 C3.27555044,8.27554547 3.26351576,8.14042752 3.34099701,8.03500028 L3.63845999,7.63024811 C3.70953014,7.53354432 3.83468965,7.50692036 3.92989218,7.57988764 L6.16460167,9.2926643 C6.3496504,9.43449354 6.64560639,9.4278854 6.82638973,9.27727825 L12.7520224,4.34074698 C12.8395434,4.26783488 12.9785264,4.27591724 13.0621032,4.35845741 L13.3137141,4.60694748 C13.3974459,4.68964079 13.4051037,4.81594275 13.319832,4.89986284 L6.79877239,11.3175596 C6.63346552,11.4802462 6.37461181,11.4829204 6.20774566,11.3102222 L3.35355762,8.35627903 Z" id="Fill-" fill="#FFFFFF"></path>
                    </g>
                </g>
            </g>
        </g>
    </g>
</svg>
