<?xml version="1.0" encoding="UTF-8"?>
<svg width="14px" height="14px" viewBox="0 0 14 14" version="1.1" xmlns="http://www.w3.org/2000/svg" xmlns:xlink="http://www.w3.org/1999/xlink">
    <!-- Generator: Sketch 64 (93537) - https://sketch.com -->
    <title>形状结合备份 39</title>
    <desc>Created with Sketch.</desc>
    <g id="资质管理" stroke="none" stroke-width="1" fill="none" fill-rule="evenodd">
        <g transform="translate(-1793.000000, -223.000000)" fill="#3D568E" fill-rule="nonzero" id="编组-6">
            <g transform="translate(190.000000, 170.000000)">
                <g id="编组-3" transform="translate(0.000000, 0.250000)">
                    <g id="编组-22备份-10" transform="translate(1586.000000, 45.000000)">
                        <path d="M28.5243641,18.3300513 L28.560941,18.3640352 L29.4692728,19.2734705 C29.7439786,19.2584239 30.0236935,19.355817 30.2335538,19.5656498 L30.7062835,20.0383178 C31.0677336,20.3997208 31.0955727,20.9684332 30.7897759,21.3617702 L30.7062835,21.4563218 L30.7062835,21.4563218 C30.3146464,21.8479077 29.6797315,21.8479077 29.2880945,21.4563218 L28.8153649,20.9836538 C28.6050295,20.7733458 28.5076654,20.4928363 28.5232776,20.2175359 L27.615605,19.3093711 C27.3545236,19.0482898 27.354496,18.6250208 27.6155433,18.3639735 C27.8647249,18.114792 28.2617158,18.1034907 28.5243641,18.3300513 Z M23.0168661,7.75 C26.3398896,7.75 29.0337323,10.4434913 29.0337323,13.7660812 C29.0337323,17.0886711 26.3398896,19.7821624 23.0168661,19.7821624 C19.6938427,19.7821624 17,17.0886711 17,13.7660812 C17,10.4434913 19.6938427,7.75 23.0168661,7.75 Z M23.0168661,9.08690694 C20.4322924,9.08690694 18.3370814,11.1818446 18.3370814,13.7660812 C18.3370814,16.3503178 20.4322924,18.4452555 23.0168661,18.4452555 C25.6014399,18.4452555 27.6966509,16.3503178 27.6966509,13.7660812 C27.6966509,11.1818446 25.6014399,9.08690694 23.0168661,9.08690694 Z" id="形状结合备份-39"></path>
                    </g>
                </g>
            </g>
        </g>
    </g>
</svg>