<?xml version="1.0" encoding="UTF-8"?>
<svg width="14px" height="14px" viewBox="0 0 14 14" version="1.1" xmlns="http://www.w3.org/2000/svg" xmlns:xlink="http://www.w3.org/1999/xlink">
    <title>形状结合</title>
    <g id="资质管理" stroke="none" stroke-width="1" fill="none" fill-rule="evenodd">
        <g id="模版管理" transform="translate(-343.000000, -450.000000)" fill="#3280E7" fill-rule="nonzero">
            <g id="编组-10" transform="translate(300.000000, 176.000000)">
                <g id="编组" transform="translate(43.000000, 271.000000)">
                    <path d="M7,3 C10.8659932,3 14,6.13400675 14,10 C14,13.8659932 10.8659932,17 7,17 C3.13400675,17 0,13.8659932 0,10 C0,6.13400675 3.13400675,3 7,3 Z M7,4.33333333 C3.87038642,4.33333333 1.33333333,6.87038642 1.33333333,10 C1.33333333,13.1296136 3.87038642,15.6666667 7,15.6666667 C10.1296136,15.6666667 12.6666667,13.1296136 12.6666667,10 C12.6666667,6.87038642 10.1296136,4.33333333 7,4.33333333 Z M7,5.68373065 C7.35145393,5.68373065 7.63938837,5.95568992 7.66483809,6.30064321 L7.66666667,6.35039732 L7.66666667,9.65676884 L9.59256458,10.6483651 C9.9043289,10.8088747 10.0359521,11.1811405 9.90219379,11.4990099 L9.88012903,11.546249 C9.71961943,11.8580134 9.34735359,11.9896366 9.02948424,11.8558783 L8.98224508,11.8338135 L6.69484025,10.6561597 C6.48870744,10.5500337 6.35368521,10.3452128 6.33544802,10.1165844 L6.33333333,10.0634355 L6.33333333,6.35039732 C6.33333333,5.98220749 6.63181017,5.68373065 7,5.68373065 Z" id="形状结合"></path>
                </g>
            </g>
        </g>
    </g>
</svg>