<?xml version="1.0" encoding="UTF-8"?>
<svg width="42px" height="44px" viewBox="0 0 42 44" version="1.1" xmlns="http://www.w3.org/2000/svg" xmlns:xlink="http://www.w3.org/1999/xlink">
    <g id="机务管理系统" stroke="none" stroke-width="1" fill-rule="evenodd">
        <g id="面线" transform="translate(-252.000000, -309.000000)" fill-rule="nonzero">
            <path d="M273,309.190307 C279.627417,309.190307 285,314.56289 285,321.190307 C285,327.817724 279.627417,333.190307 273,333.190307 L273,333.190307 C263.611159,333.190307 256,340.801466 256,350.190307 C256,351.294876 255.104569,352.190307 254,352.190307 C252.895431,352.190307 252,351.294876 252,350.190307 C252,341.230877 257.610703,333.581896 265.510166,330.565308 C262.760823,328.367276 261,324.984422 261,321.190307 C261,314.56289 266.372583,309.190307 273,309.190307 Z M288,332.190307 C291.313708,332.190307 294,334.876598 294,338.190307 L294,338.190307 L294,345.190307 C294,348.504015 291.313708,351.190307 288,351.190307 L288,351.190307 L282,351.190307 C278.686292,351.190307 276,348.504015 276,345.190307 L276,345.190307 L276,338.190307 C276,334.876598 278.686292,332.190307 282,332.190307 L282,332.190307 Z M288,336.190307 L282,336.190307 C280.895431,336.190307 280,337.085737 280,338.190307 L280,338.190307 L280,345.190307 C280,346.294876 280.895431,347.190307 282,347.190307 L282,347.190307 L288,347.190307 C289.104569,347.190307 290,346.294876 290,345.190307 L290,345.190307 L290,338.190307 C290,337.085737 289.104569,336.190307 288,336.190307 L288,336.190307 Z M285,338.690307 C286.054362,338.690307 286.918165,339.506184 286.994514,340.541044 L287,340.690307 L287,342.690307 C287,343.794876 286.104569,344.690307 285,344.690307 C283.945638,344.690307 283.081835,343.874429 283.005486,342.839569 L283,342.690307 L283,340.690307 C283,339.585737 283.895431,338.690307 285,338.690307 Z M273,313.190307 C268.581722,313.190307 265,316.772029 265,321.190307 C265,325.608585 268.581722,329.190307 273,329.190307 C277.418278,329.190307 281,325.608585 281,321.190307 C281,316.772029 277.418278,313.190307 273,313.190307 Z" id="形状结合"></path>
        </g>
    </g>
</svg>
