<?xml version="1.0" encoding="UTF-8"?>
<svg width="34px" height="42px" viewBox="0 0 34 42" version="1.1" xmlns="http://www.w3.org/2000/svg" xmlns:xlink="http://www.w3.org/1999/xlink">
    <g id="机务管理系统" stroke="none" stroke-width="1" fill-rule="evenodd">
        <g id="面线" transform="translate(-429.000000, -574.000000)" fill-rule="nonzero">
            <path d="M446,574 C450.08434,574 453.770046,576.274988 455.677321,579.84153 C456.198207,580.815569 455.830853,582.027445 454.856814,582.54833 C453.882775,583.069216 452.670899,582.701863 452.150014,581.727824 C450.929302,579.445133 448.588044,578 446,578 C442.219871,578 439.128508,581.062062 439.003904,584.901877 L439,585.142857 L439,590 L457,590 C460.313708,590 463,592.686292 463,596 L463,610 C463,613.313708 460.313708,616 457,616 L435,616 C431.686292,616 429,613.313708 429,610 L429,596 C429,592.761603 431.565575,590.122428 434.775062,590.004138 L435,590 L435,585.142857 C435,578.995816 439.917756,574 446,574 Z M457,594 L435,594 C433.945638,594 433.081835,594.815878 433.005486,595.850738 L433,596 L433,610 C433,611.054362 433.815878,611.918165 434.850738,611.994514 L435,612 L457,612 C458.054362,612 458.918165,611.184122 458.994514,610.149262 L459,610 L459,596 C459,594.945638 458.184122,594.081835 457.149262,594.005486 L457,594 Z M446.5,599 C447.554362,599 448.418165,599.815878 448.494514,600.850738 L448.5,601 L448.5,605 C448.5,606.104569 447.604569,607 446.5,607 C445.445638,607 444.581835,606.184122 444.505486,605.149262 L444.5,605 L444.5,601 C444.5,599.895431 445.395431,599 446.5,599 Z" id="形状结合"></path>
        </g>
    </g>
</svg>
