<?xml version="1.0" encoding="UTF-8"?>
<svg width="43px" height="42px" viewBox="0 0 43 42" version="1.1" xmlns="http://www.w3.org/2000/svg" xmlns:xlink="http://www.w3.org/1999/xlink">

    <g id="机务管理系统" stroke="none" stroke-width="1" fill-rule="evenodd">
        <g id="面线" transform="translate(-309.000000, -379.000000)" fill-rule="nonzero">
            <path d="M331.742651,379 C332.8343,379 333.719256,379.895431 333.719256,381 C333.719256,382.054362 332.912922,382.918165 331.890167,382.994514 L331.742651,383 L315.929814,383 C314.887786,383 314.034087,383.815878 313.958631,384.850738 L313.953209,385 L313.953209,415 C313.953209,416.054362 314.759543,416.918165 315.782298,416.994514 L315.929814,417 L331.742651,417 C332.8343,417 333.719256,417.895431 333.719256,419 C333.719256,420.054362 332.912922,420.918165 331.890167,420.994514 L331.742651,421 L315.929814,421 C312.729299,421 310.120996,418.434425 310.00409,415.224938 L310,415 L310,385 C310,381.761603 312.535564,379.122428 315.707507,379.004138 L315.929814,379 L331.742651,379 Z M341.993026,390.049703 L342.101215,390.150134 L350.487238,398.536157 C351.224063,399.272983 351.250807,400.453552 350.572406,401.238663 L350.470695,401.348042 L341.985414,409.833323 C341.204365,410.614371 339.945442,410.621778 339.173529,409.849866 C338.436704,409.113041 338.409961,407.932472 339.088362,407.14736 L339.190072,407.037982 L344.227,402 L323.836233,402 C322.744584,402 321.859628,401.104569 321.859628,400 C321.859628,398.945638 322.665962,398.081835 323.688716,398.005486 L323.836233,398 L344.295,398 L339.272788,392.978561 C338.535962,392.241736 338.509219,391.061167 339.18762,390.276055 L339.289331,390.166677 C340.034877,389.421131 341.215842,389.380494 341.993026,390.049703 Z" id="形状结合" transform="translate(330.500000, 400.000000) rotate(-90.000000) translate(-330.500000, -400.000000) "></path>
        </g>
    </g>
</svg>
