<?xml version="1.0" encoding="UTF-8"?>
<svg width="18px" height="16px" viewBox="0 0 18 16" version="1.1" xmlns="http://www.w3.org/2000/svg" xmlns:xlink="http://www.w3.org/1999/xlink">
    <title>上传</title>
    <g id="页面-1" stroke="none" stroke-width="1" fill="none" fill-rule="evenodd">
        <g id="新增工单模板配置" transform="translate(-1064.000000, -126.000000)" fill="#3D568E" fill-rule="nonzero">
            <g id="编组-17" transform="translate(1054.000000, 118.000000)">
                <g id="编组-18">
                    <g id="编组-23">
                        <g id="编组" transform="translate(10.000000, 8.000000)">
                            <g id="上传" transform="translate(0.000000, 0.000000)">
                                <path d="M3.14742857,14.688 C1.872,14.688 1.14171429,13.9577143 1.14171429,12.6822857 L1.14171429,9.17485714 C1.14171429,8.95885714 1.31657143,8.784 1.53257143,8.784 C2.11885714,8.784 2.71542857,8.70171429 2.71542857,9.25714286 L2.71542857,12.5897143 C2.71542857,12.8674286 2.94171429,13.0834286 3.20914286,13.0834286 L14.7908571,13.0834286 C15.0685714,13.0834286 15.2948571,12.8571429 15.2948571,12.5794286 L15.2948571,9.16457143 C15.2948571,8.94857143 15.4697143,8.77371429 15.6857143,8.77371429 C16.272,8.77371429 16.8685714,8.69142857 16.8685714,9.24685714 L16.8685714,12.7645714 C16.8685714,14.04 16.2411429,14.6674286 14.9657143,14.6674286 L3.14742857,14.688 L3.14742857,14.688 Z" id="路径"></path>
                                <path d="M9.78171429,1.45028571 L9.78171429,10.2548571 C9.78171429,10.6868571 9.432,10.728 9,10.728 C8.568,10.728 8.21828571,10.6868571 8.21828571,10.2548571 L8.21828571,1.45028571 C8.21828571,1.01828571 8.568,0.668571429 9,0.668571429 C9.432,0.668571429 9.78171429,1.01828571 9.78171429,1.45028571 Z" id="路径"></path>
                                <path d="M8.95885714,0.390857143 C9.16457143,0.390857143 9.37028571,0.473142857 9.51428571,0.617142857 L13.2891429,4.38171429 C13.5874286,4.68 13.4537143,5.07085714 13.1451429,5.37942857 C12.8365714,5.688 12.4457143,5.76 12.1782857,5.49257143 L8.95885714,2.27314286 L5.91428571,5.31771429 C5.55428571,5.67771429 5.16342857,5.67771429 4.80342857,5.31771429 C4.44342857,4.95771429 4.42285714,4.58742857 4.80342857,4.20685714 L8.40342857,0.606857143 C8.54742857,0.462857143 8.75314286,0.380571429 8.95885714,0.380571429 L8.95885714,0.390857143 Z" id="路径"></path>
                            </g>
                        </g>
                    </g>
                </g>
            </g>
        </g>
    </g>
</svg>