<?xml version="1.0" encoding="UTF-8"?>
<svg width="16px" height="16px" viewBox="0 0 16 16" version="1.1" xmlns="http://www.w3.org/2000/svg" xmlns:xlink="http://www.w3.org/1999/xlink">
    <title></title>
    <g id="资质管理" stroke="none" stroke-width="1" fill="none" fill-rule="evenodd">
        <g transform="translate(-1689.000000, -17.000000)" fill="#FFFFFF" fill-rule="nonzero" id="title">
            <g>
                <g id="编组-9" transform="translate(1689.000000, 15.000000)">
                    <g id="ic_user" transform="translate(0.000000, 2.000000)">
                        <path d="M8.04266563,7.52902959 C8.86320834,7.52902959 9.53007625,6.91906196 9.53007625,6.17126332 C9.53007625,5.42305629 8.86328206,4.81302166 8.04266563,4.81302166 C7.22170947,4.81302166 6.55525501,5.42288238 6.55525501,6.17126332 C6.55525501,6.91923583 7.22178317,7.52902959 8.04266563,7.52902959 Z M5.11994855,6.17126332 C5.11994855,4.69610066 6.43165604,3.49726776 8.04266563,3.49726776 C9.65332459,3.49726776 10.9653827,4.69626366 10.9653827,6.17126332 L10.9651872,6.17818662 L10.9503903,6.43727159 C10.8040377,7.8008947 9.54682538,8.84521446 8.04425353,8.84620965 C8.00983698,8.84620965 7.98392646,8.84402455 7.97966569,8.83874531 L7.88672847,8.84999474 C6.51629132,8.87124747 5.36918381,9.82607986 5.21735524,11.0687063 C5.17910751,11.3851061 4.88895674,11.6229483 4.54399255,11.6229483 C4.35099386,11.6229483 4.1667366,11.5474647 4.03814536,11.4152156 C3.91050793,11.2842883 3.84914087,11.1094027 3.87009773,10.9351449 C4.01778134,9.71148381 4.81280355,8.63929742 5.98604964,8.05776681 C5.43605581,7.55794764 5.11994855,6.87701524 5.11994855,6.17126332 Z M10.7784463,8.77075094 C11.59526,9.36562882 12.0959172,10.151677 12.2418297,11.088524 C12.2687218,11.2660487 12.2105583,11.4457321 12.083229,11.5806648 C11.953785,11.7178987 11.7672226,11.7961784 11.5700245,11.7961784 C11.2354683,11.7961784 10.9477976,11.5680358 10.899343,11.2621884 C10.7993143,10.617055 10.4350514,10.0421281 9.84585034,9.61740294 L9.64301161,9.3540379 C9.61573895,9.28667727 9.60163535,9.21530918 9.60163535,9.14357524 C9.60163535,8.83670422 9.80460511,8.68015126 10.2316682,8.52932856 C10.3978351,8.47064464 10.5281343,8.5526229 10.7784463,8.77075094 Z M14.1505226,11.1069258 L14.1505226,4.88847257 C14.1505226,4.72015659 14.0568426,4.56380133 13.9072612,4.48105951 L8.30100486,1.37141143 C8.22846904,1.33126394 8.14627126,1.31024832 8.0625,1.31024832 C7.9787347,1.31024832 7.89666301,1.33125774 7.82462518,1.3713485 L2.21811021,4.48113987 C2.06867389,4.56380133 1.97499385,4.72015659 1.97499385,4.88847257 L1.97499385,11.1069258 C1.97499385,11.2750972 2.06856041,11.431158 2.21825528,11.5143389 L7.82441094,14.6239313 C7.96895182,14.7037803 8.15656466,14.7037803 8.3008913,14.6240499 L13.9071664,11.5143915 C14.0569561,11.431158 14.1505226,11.2750972 14.1505226,11.1069258 Z M9.11058048,0.26460279 L14.5196981,3.26486768 C15.1634492,3.62171838 15.5625,4.28555207 15.5625,4.99745777 L15.5625,10.9979406 C15.5625,11.7098463 15.1634492,12.37368 14.5197218,12.7305176 L9.1107363,15.7302248 C8.79293303,15.906771 8.43048135,16 8.0625,16 C7.69434065,16 7.33183653,15.9066842 7.0153915,15.7302774 L1.6058184,12.7305307 C0.961909977,12.3735928 0.5625,11.7096708 0.5625,10.9979406 L0.5625,4.99745777 C0.5625,4.28572765 0.961909977,3.62180557 1.60579122,3.26488275 L7.01526782,0.264705246 C7.65022365,-0.088218004 8.4735895,-0.088218004 9.11058048,0.26460279 Z" id="合并形状"></path>
                    </g>
                </g>
            </g>
        </g>
    </g>
</svg>
