<?xml version="1.0" encoding="UTF-8"?>
<svg width="16px" height="16px" viewBox="0 0 16 16" version="1.1" xmlns="http://www.w3.org/2000/svg" xmlns:xlink="http://www.w3.org/1999/xlink">
    <!-- Generator: Sketch 64 (93537) - https://sketch.com -->
    <g id="资质管理" stroke="none" stroke-width="1" fill="none" fill-rule="evenodd">
        <g transform="translate(-39.000000, -558.000000)" fill="#FFFFFF" fill-rule="nonzero" id="形状结合">
            <path d="M52.7142857,558 C53.9766509,558 55,559.023251 55,560.285495 L55,560.285495 L55,569.427476 C55,570.68972 53.9766509,571.712971 52.7142857,571.712971 L52.7142857,571.712971 L42.192,571.712971 L40.323546,573.751423 C39.8674247,574.248963 39.0484867,573.949724 39.0020626,573.29529 L39.0020626,573.29529 L39,573.236635 L39,560.285495 C39,559.023251 40.0233491,558 41.2857143,558 L41.2857143,558 Z M52.7142857,559.523663 L41.2857143,559.523663 C40.8649259,559.523663 40.5238095,559.864747 40.5238095,560.285495 L40.5238095,560.285495 L40.5238095,571.277585 L41.2955016,570.436351 C41.4237792,570.296425 41.5990296,570.210062 41.7863852,570.192597 L41.7863852,570.192597 L41.8571429,570.189308 L52.7142857,570.189308 C53.1350741,570.189308 53.4761905,569.848224 53.4761905,569.427476 L53.4761905,569.427476 L53.4761905,560.285495 C53.4761905,559.864747 53.1350741,559.523663 52.7142857,559.523663 L52.7142857,559.523663 Z M47.1904762,565.999233 C47.6112646,565.999233 47.952381,566.340317 47.952381,566.761065 C47.952381,567.162688 47.6415704,567.491725 47.247338,567.520807 L47.1904762,567.522897 L43.3809524,567.522897 C42.960164,567.522897 42.6190476,567.181813 42.6190476,566.761065 C42.6190476,566.359442 42.9298582,566.030406 43.3240905,566.001323 L43.3809524,565.999233 L47.1904762,565.999233 Z M51,562.380533 C51.4207884,562.380533 51.7619048,562.721616 51.7619048,563.142364 C51.7619048,563.543987 51.4510942,563.873024 51.0568618,563.902106 L51,563.904196 L43.3809524,563.904196 C42.960164,563.904196 42.6190476,563.563112 42.6190476,563.142364 C42.6190476,562.740741 42.9298582,562.411705 43.3240905,562.382622 L43.3809524,562.380533 L51,562.380533 Z"></path>
        </g>
    </g>
</svg>
