<?xml version="1.0" encoding="UTF-8"?>
<svg width="42px" height="42px" viewBox="0 0 42 42" version="1.1" xmlns="http://www.w3.org/2000/svg" xmlns:xlink="http://www.w3.org/1999/xlink">
    <title>移动</title>
    <g id="机务管理系统" stroke="none" stroke-width="1" fill="none" fill-rule="evenodd">
        <g id="画板" transform="translate(-364.000000, -419.000000)" fill="#3D568E" fill-rule="nonzero">
            <path d="M374.692236,419 C375.491929,419 376.283553,419.159861 377.020578,419.470188 L377.020578,419.470188 L385.03165,422.843271 C385.277325,422.946713 385.5412,423 385.807764,423 L385.807764,423 L400,423 C403.313708,423 406,425.686292 406,429 L406,429 L406,455 C406,458.313708 403.313708,461 400,461 L400,461 L370,461 C366.686292,461 364,458.313708 364,455 L364,455 L364,425 C364,421.686292 366.686292,419 370,419 L370,419 Z M374.692236,423 L370,423 C368.895431,423 368,423.895431 368,425 L368,425 L368,455 C368,456.104569 368.895431,457 370,457 L370,457 L400,457 C401.104569,457 402,456.104569 402,455 L402,455 L402,429 C402,427.895431 401.104569,427 400,427 L400,427 L385.807764,427 C385.008071,427 384.216447,426.840139 383.479422,426.529812 L383.479422,426.529812 L375.46835,423.156729 C375.222675,423.053287 374.9588,423 374.692236,423 L374.692236,423 Z M389.30479,433.413053 L389.414214,433.514719 L396.485281,440.585786 C397.230828,441.331333 397.264716,442.519047 396.586947,443.30479 L396.485281,443.414214 L389.414214,450.485281 C388.633165,451.26633 387.366835,451.26633 386.585786,450.485281 C385.84024,449.739735 385.806352,448.552021 386.484121,447.766278 L386.585786,447.656854 L390.242,444 L376,444 C374.895431,444 374,443.104569 374,442 C374,440.945638 374.815878,440.081835 375.850738,440.005486 L376,440 L390.242,440 L386.585786,436.343146 C385.84024,435.597599 385.806352,434.409885 386.484121,433.624142 L386.585786,433.514719 C387.331333,432.769172 388.519047,432.735284 389.30479,433.413053 Z" id="移动"></path>
        </g>
    </g>
</svg>