<?xml version="1.0" encoding="UTF-8"?>
<svg width="16px" height="16px" viewBox="0 0 16 16" version="1.1" xmlns="http://www.w3.org/2000/svg" xmlns:xlink="http://www.w3.org/1999/xlink">
    <!-- Generator: Sketch 64 (93537) - https://sketch.com -->
    <g id="资质管理" stroke="none" stroke-width="1" fill="none" fill-rule="evenodd">
        <g transform="translate(-39.000000, -117.000000)" fill="#FFFFFF" fill-rule="nonzero" id="形状结合">
            <path d="M52.7142857,119.285609 C53.1350741,119.285609 53.4761905,119.62671 53.4761905,120.047479 L53.4761905,120.047479 L53.4761905,132.237396 C53.4761905,132.77442 52.9354538,133.142896 52.4356165,132.946477 L52.4356165,132.946477 L47,130.810033 L41.5643835,132.946477 C41.0817819,133.136123 40.5610531,132.79916 40.5257146,132.292333 L40.5257146,132.292333 L40.5238095,132.237396 L40.5238095,120.047479 C40.5238095,119.62671 40.8649259,119.285609 41.2857143,119.285609 L41.2857143,119.285609 Z M51.952381,120.809349 L42.047619,120.809349 L42.047619,131.118971 L46.7213307,129.282804 C46.8780541,129.221217 47.050091,129.213519 47.2106427,129.259709 L47.2106427,129.259709 L47.2786693,129.282804 L51.952381,131.119352 L51.952381,120.809349 Z M46.6583863,122.545435 C46.7981248,122.262307 47.2018752,122.262307 47.3416137,122.545435 L47.3416137,122.545435 L47.9245714,123.726929 L49.2286238,123.916365 C49.5262094,123.959605 49.6535463,124.309938 49.4696837,124.533581 L49.4696837,124.533581 L49.4397527,124.566123 L48.496,125.485706 L48.718979,126.784335 C48.7699282,127.081378 48.4746229,127.311104 48.2045991,127.20359 L48.2045991,127.20359 L48.1662363,127.185907 L47,126.572894 L45.8337637,127.185907 C45.5669901,127.326152 45.2572428,127.116302 45.2760579,126.826282 L45.2760579,126.826282 L45.281021,126.784335 L45.503619,125.485706 L44.5602473,124.566123 C44.3449123,124.356233 44.4478245,123.997964 44.7280329,123.9251 L44.7280329,123.9251 L44.7713762,123.916365 L46.0750476,123.726929 Z M54.2380952,117 C54.6588836,117 55,117.341101 55,117.76187 C55,118.163513 54.6891894,118.492566 54.2949571,118.52165 L54.2380952,118.52374 L39.7619048,118.52374 C39.3411164,118.52374 39,118.182639 39,117.76187 C39,117.360227 39.3108106,117.031174 39.7050429,117.00209 L39.7619048,117 L54.2380952,117 Z"></path>
        </g>
    </g>
</svg>
